<svg width="36" height="34" viewBox="0 0 36 34" fill="none" xmlns="http://www.w3.org/2000/svg">
<path d="M16.0632 29.9145L16.0617 29.9132C11.4071 25.6924 7.62406 22.2555 4.99301 19.0366C2.37296 15.8312 1 12.9642 1 9.9C1 4.89148 4.90709 1 9.9 1C12.7297 1 15.4621 2.32246 17.2412 4.39528L18 5.27943L18.7588 4.39528C20.5379 2.32246 23.2703 1 26.1 1C31.0929 1 35 4.89148 35 9.9C35 12.9642 33.627 15.8312 31.007 19.0366C28.3759 22.2555 24.5929 25.6924 19.9383 29.9132L19.9368 29.9145L18 31.6777L16.0632 29.9145Z" stroke="white" stroke-width="2"/>
</svg>
