<svg width="20" height="37" viewBox="0 0 20 37" fill="none" xmlns="http://www.w3.org/2000/svg">
    <path
        d="M4.90323 16.629C3.95699 16.629 3.1828 16.4355 2.58064 16.0484C1.97849 15.6613 1.48387 15.1667 1.09677 14.5645C0.623656 13.8764 0.32258 13.1237 0.193548 12.3065C0.0645159 11.4893 0 10.8226 0 10.3065C0 8.19893 0.537634 6.28495 1.6129 4.56453C2.68817 2.84409 4.36559 1.44624 6.64516 0.370972L7.22581 1.53226C5.89247 2.0914 4.73118 2.97312 3.74194 4.17742C2.7957 5.38172 2.32258 6.60753 2.32258 7.85485C2.32258 8.37097 2.3871 8.82259 2.51613 9.20968C3.2043 8.65054 4 8.37097 4.90323 8.37097C6.02151 8.37097 6.98925 8.73657 7.80645 9.46775C8.62366 10.1989 9.03226 11.2097 9.03226 12.5C9.03226 13.7043 8.62366 14.6936 7.80645 15.4677C6.98925 16.2419 6.02151 16.629 4.90323 16.629ZM15.871 16.629C14.9247 16.629 14.1505 16.4355 13.5484 16.0484C12.9462 15.6613 12.4516 15.1667 12.0645 14.5645C11.5914 13.8764 11.2903 13.1237 11.1613 12.3065C11.0323 11.4893 10.9677 10.8226 10.9677 10.3065C10.9677 8.19893 11.5054 6.28495 12.5806 4.56453C13.6559 2.84409 15.3333 1.44624 17.6129 0.370972L18.1935 1.53226C16.8602 2.0914 15.6989 2.97312 14.7097 4.17742C13.7634 5.38172 13.2903 6.60753 13.2903 7.85485C13.2903 8.37097 13.3548 8.82259 13.4839 9.20968C14.172 8.65054 14.9677 8.37097 15.871 8.37097C16.9892 8.37097 17.957 8.73657 18.7742 9.46775C19.5914 10.1989 20 11.2097 20 12.5C20 13.7043 19.5914 14.6936 18.7742 15.4677C17.957 16.2419 16.9892 16.629 15.871 16.629Z"
        fill="black"/>
</svg>
