<?xml version="1.0" encoding="UTF-8"?>
<svg id="_레이어_2" data-name="레이어 2" xmlns="http://www.w3.org/2000/svg" viewBox="0 0 198.73046875 120.033203125">
  <g id="_레이어_4" data-name="레이어 4">
    <g>
      <path d="M57.08984375,13.947265625c22.330078125,0,38.734375,11.923828125,38.734375,29.33984375,0,13.44140625-6.287109375,21.390625-29.412109375,38.01171875l-20.884765625,15.03125-.072265625.578125h40.90234375l-4.9140625,23.125H0l4.625-21.029296875,41.986328125-30.712890625c15.103515625-11.056640625,19.3671875-15.392578125,19.3671875-21.96875,0-5.564453125-4.625-9.322265625-11.056640625-9.322265625-7.732421875,0-13.44140625,4.48046875-15.03125,12.646484375H12.28515625c1.30078125-20.595703125,20.234375-35.69921875,44.8046875-35.69921875Z"/>
      <path d="M114.541015625,15.537109375h4.263671875l-1.58984375,7.732421875h.14453125c3.107421875-5.05859375,8.3828125-8.455078125,15.248046875-8.455078125,8.166015625,0,13.947265625,5.130859375,14.01953125,12.140625.072265625,1.373046875-.072265625,2.890625-.43359375,4.48046875l-5.34765625,25.076171875h-4.48046875l5.130859375-24.208984375c.361328125-1.517578125.578125-2.890625.505859375-4.119140625-.072265625-5.564453125-4.408203125-9.25-11.201171875-9.25-7.587890625,0-13.658203125,5.419921875-15.17578125,12.501953125l-5.34765625,25.076171875h-4.48046875l8.744140625-40.974609375Z"/>
      <path d="M151.830078125,40.396484375c-.14453125-14.1640625,9.68359375-25.509765625,21.751953125-25.509765625,7.732421875,0,13.802734375,4.697265625,14.814453125,11.41796875h.14453125l5.63671875-26.3046875h4.552734375l-12.068359375,56.51171875h-4.48046875l1.806640625-8.52734375h-.216796875c-3.1796875,5.564453125-9.466796875,9.177734375-16.115234375,9.177734375-9.39453125,0-15.75390625-6.79296875-15.826171875-16.765625ZM186.662109375,32.0859375c-.14453125-7.94921875-5.203125-13.15234375-12.935546875-13.15234375-9.5390625,0-17.560546875,9.5390625-17.416015625,21.029296875.14453125,8.021484375,5.05859375,13.224609375,12.57421875,13.224609375,10.478515625,0,17.921875-9.755859375,17.77734375-21.1015625Z"/>
    </g>
  </g>
</svg>