<svg width="81" height="21" viewBox="0 0 81 21" fill="none" xmlns="http://www.w3.org/2000/svg">
<g filter="url(#filter0_d_4507_8537)">
<path d="M14.8737 3.20345C16.4715 3.20345 17.6998 3.55015 18.559 4.24345C19.4332 4.93676 19.8703 5.85623 19.8703 7.00171C19.8703 7.45389 19.8024 7.92867 19.6668 8.42606C19.2448 9.93328 18.4083 11.0487 17.1572 11.7721C15.9213 12.4956 14.3537 12.8574 12.4546 12.8574H10.1259L9.35722 15.593C9.32713 15.6835 9.312 15.8041 9.312 15.9548C9.312 16.1658 9.35721 16.3391 9.44765 16.4748C9.55321 16.6104 9.70391 16.7687 9.89983 16.9495C10.0657 17.1002 10.1787 17.2133 10.239 17.2887C10.2993 17.3641 10.3294 17.4545 10.3294 17.56C10.3294 17.8162 10.2089 17.9971 9.96765 18.1026C9.72652 18.2081 9.37235 18.2608 8.90505 18.2608H3.23026C2.83843 18.2608 2.54452 18.193 2.34852 18.0574C2.15261 17.9067 2.08478 17.7032 2.14504 17.4469C2.17522 17.3113 2.23548 17.2058 2.32591 17.1304C2.4013 17.04 2.52191 16.942 2.68765 16.8365C2.94391 16.6858 3.14739 16.5275 3.29809 16.3617C3.44887 16.1959 3.56939 15.9397 3.65982 15.593L6.41808 5.84867C6.47843 5.65276 6.50852 5.46432 6.50852 5.28345C6.50852 5.11763 6.47843 4.98197 6.41808 4.8765C6.37287 4.75589 6.30504 4.62023 6.21461 4.46954C6.07896 4.27363 6.01113 4.11536 6.01113 3.99476C6.01113 3.94954 6.02626 3.86667 6.05634 3.74606C6.11669 3.55015 6.24478 3.41447 6.44069 3.3391C6.65174 3.24867 6.96826 3.20345 7.39026 3.20345H14.8737ZM14.2859 8.0191C14.4517 7.46145 14.5346 6.97154 14.5346 6.54954C14.5346 5.67536 14.1277 5.23823 13.3137 5.23823H12.2963L10.6911 10.8226H11.6859C12.319 10.8226 12.8315 10.6267 13.2233 10.2348C13.6303 9.8278 13.9845 9.08928 14.2859 8.0191ZM24.5084 6.30084C25.3826 6.30084 26.0232 6.46667 26.4302 6.79823C26.8371 7.1298 27.0406 7.58197 27.0406 8.15476C27.0406 8.50145 26.9878 8.83302 26.8823 9.14954L24.8023 15.9095C24.7571 16.0904 24.7345 16.2487 24.7345 16.3843C24.7345 16.5802 24.7722 16.7385 24.8476 16.8591C24.923 16.9646 25.0284 17.0701 25.1641 17.1756C25.2696 17.2811 25.345 17.3715 25.3902 17.4469C25.4354 17.5072 25.443 17.5901 25.4128 17.6956C25.3374 17.8915 25.1867 18.0348 24.9606 18.1252C24.7345 18.2156 24.3878 18.2608 23.9206 18.2608H18.7658C18.3739 18.2608 18.0876 18.2006 17.9067 18.08C17.7258 17.9443 17.6656 17.771 17.7258 17.56C17.7861 17.3791 17.9443 17.2208 18.2006 17.0852C18.4267 16.9646 18.6151 16.8215 18.7658 16.6556C18.9165 16.4898 19.0447 16.2261 19.1502 15.8643L21.1171 9.33041C21.1623 9.19476 21.185 9.08171 21.185 8.99128C21.185 8.82545 21.1473 8.69736 21.0719 8.60693C20.9965 8.50145 20.8835 8.39589 20.7328 8.29041C20.5821 8.1698 20.4765 8.06432 20.4163 7.97389C20.356 7.88345 20.3484 7.76284 20.3937 7.61215C20.4841 7.26545 20.9589 6.96406 21.818 6.7078C22.6771 6.4365 23.5739 6.30084 24.5084 6.30084ZM26.0232 1.30432C26.611 1.30432 27.1009 1.50026 27.4928 1.89215C27.8847 2.26896 28.0806 2.73621 28.0806 3.29389C28.0806 3.6858 27.9751 4.07015 27.7641 4.44693C27.5682 4.82371 27.2817 5.13276 26.905 5.37389C26.5432 5.59997 26.1363 5.71302 25.6841 5.71302C25.1113 5.71302 24.629 5.52458 24.2371 5.1478C23.8603 4.75589 23.6643 4.27363 23.6493 3.70084C23.6493 3.32403 23.7473 2.95476 23.9432 2.59302C24.1391 2.21621 24.418 1.90722 24.7797 1.66606C25.1415 1.4249 25.556 1.30432 26.0232 1.30432ZM35.0489 6.1878C35.9683 6.1878 36.7746 6.32345 37.468 6.59476C38.1613 6.85102 38.6963 7.21276 39.0728 7.67997C39.465 8.13215 39.6606 8.6371 39.6606 9.19476C39.6606 9.79763 39.4502 10.295 39.0276 10.6869C38.621 11.0788 38.0633 11.2748 37.355 11.2748C36.6315 11.2748 36.0663 11.0939 35.6593 10.7321C35.2523 10.3554 35.0489 9.85041 35.0489 9.21737C35.0489 8.91589 35.0941 8.59937 35.1845 8.2678C34.5515 8.43363 33.9863 8.76519 33.4889 9.26258C33.0065 9.74493 32.6824 10.3855 32.5167 11.1843C32.4263 11.6365 32.381 12.0435 32.381 12.4052C32.381 13.2191 32.6071 13.8371 33.0593 14.2591C33.5115 14.6811 34.1596 14.8921 35.0037 14.8921C35.4859 14.8921 35.9004 14.8469 36.2471 14.7565C36.5937 14.651 36.948 14.5154 37.3097 14.3495C37.6111 14.1988 37.8297 14.1235 37.9654 14.1235C38.0558 14.1235 38.1161 14.1461 38.1463 14.1913C38.1763 14.2215 38.1915 14.2968 38.1915 14.4174C38.2065 14.975 37.9729 15.5628 37.4906 16.1808C37.0233 16.7837 36.3677 17.2962 35.5237 17.7182C34.6946 18.1252 33.7602 18.3287 32.7202 18.3287C31.635 18.3287 30.6703 18.1328 29.8263 17.7408C28.9972 17.3339 28.3491 16.7611 27.8819 16.0226C27.4297 15.2689 27.2036 14.3948 27.2036 13.4C27.2036 12.9328 27.2639 12.4128 27.3845 11.84C27.7915 9.97102 28.6883 8.56171 30.075 7.61215C31.4767 6.66258 33.1346 6.1878 35.0489 6.1878ZM53.0902 15.1408C53.0606 15.2011 53.045 15.2915 53.045 15.4121C53.045 15.5176 53.0676 15.6006 53.1128 15.6608C53.1737 15.7211 53.2484 15.7513 53.3389 15.7513C53.5197 15.7513 53.671 15.6759 53.791 15.5252C53.9267 15.3594 54.0171 15.2765 54.0623 15.2765C54.138 15.2765 54.198 15.3293 54.2432 15.4348C54.2884 15.5252 54.311 15.6382 54.311 15.7739C54.3267 16.211 54.1832 16.6406 53.8815 17.0626C53.5806 17.4695 53.1354 17.8087 52.5476 18.08C51.9754 18.3362 51.2815 18.4643 50.4676 18.4643C49.4728 18.4643 48.6815 18.2382 48.0937 17.7861C47.5058 17.3188 47.205 16.7008 47.1893 15.9321C47.1893 15.3745 47.325 14.7489 47.5963 14.0556L48.8397 10.8C48.9154 10.6041 48.9528 10.4458 48.9528 10.3252C48.9528 10.1293 48.885 9.9785 48.7493 9.87302C48.6293 9.75241 48.478 9.69215 48.2971 9.69215C47.9658 9.69215 47.6493 9.85041 47.3476 10.1669C47.0467 10.4684 46.8276 10.8452 46.6919 11.2974L45.2902 15.9095C45.2302 16.0754 45.1997 16.2336 45.1997 16.3843C45.1997 16.5652 45.238 16.7159 45.3128 16.8365C45.3884 16.942 45.4936 17.055 45.6293 17.1756C45.7354 17.2661 45.8102 17.3489 45.8554 17.4243C45.9006 17.4997 45.9084 17.5901 45.878 17.6956C45.818 17.8915 45.6745 18.0348 45.4484 18.1252C45.2223 18.2156 44.8684 18.2608 44.3858 18.2608H39.231C38.8397 18.2608 38.5605 18.2006 38.3948 18.08C38.2139 17.9443 38.1461 17.771 38.1913 17.56C38.2516 17.3791 38.4098 17.2208 38.6661 17.0852C38.8919 16.9646 39.0806 16.8215 39.231 16.6556C39.3823 16.4898 39.5102 16.2261 39.6154 15.8643L41.6276 9.33041C41.658 9.25502 41.6728 9.14954 41.6728 9.01389C41.6728 8.84806 41.6354 8.71997 41.5597 8.62954C41.4997 8.5391 41.3945 8.42606 41.2432 8.29041C41.0928 8.1698 40.9876 8.06432 40.9267 7.97389C40.8667 7.88345 40.8589 7.76284 40.9041 7.61215C40.9945 7.26545 41.4693 6.96406 42.3284 6.7078C43.1876 6.4365 44.085 6.30084 45.0189 6.30084C45.7728 6.30084 46.3684 6.51189 46.805 6.93389C47.2424 7.34084 47.438 7.91363 47.3928 8.65215C48.011 7.76284 48.6667 7.15241 49.3597 6.82084C50.0536 6.47415 50.8067 6.30084 51.6206 6.30084C52.5406 6.30084 53.2789 6.57971 53.8363 7.13737C54.4093 7.69502 54.6954 8.4185 54.6954 9.3078C54.6954 9.77502 54.6206 10.2348 54.4693 10.6869L53.0902 15.1408ZM61.2258 6.30084C62.0997 6.30084 62.7406 6.46667 63.1476 6.79823C63.5545 7.1298 63.758 7.58197 63.758 8.15476C63.758 8.50145 63.705 8.83302 63.5997 9.14954L61.5197 15.9095C61.4745 16.0904 61.4519 16.2487 61.4519 16.3843C61.4519 16.5802 61.4893 16.7385 61.565 16.8591C61.6397 16.9646 61.7458 17.0701 61.8815 17.1756C61.9867 17.2811 62.0624 17.3715 62.1076 17.4469C62.1528 17.5072 62.1597 17.5901 62.1302 17.6956C62.0545 17.8915 61.9041 18.0348 61.678 18.1252C61.4519 18.2156 61.105 18.2608 60.638 18.2608H55.4832C55.091 18.2608 54.805 18.2006 54.6241 18.08C54.4432 17.9443 54.3823 17.771 54.4432 17.56C54.5032 17.3791 54.6615 17.2208 54.918 17.0852C55.1441 16.9646 55.3319 16.8215 55.4832 16.6556C55.6337 16.4898 55.7615 16.2261 55.8676 15.8643L57.8345 9.33041C57.8797 9.19476 57.9023 9.08171 57.9023 8.99128C57.9023 8.82545 57.8641 8.69736 57.7893 8.60693C57.7136 8.50145 57.6006 8.39589 57.4502 8.29041C57.2989 8.1698 57.1937 8.06432 57.1337 7.97389C57.0728 7.88345 57.0658 7.76284 57.111 7.61215C57.2015 7.26545 57.6763 6.96406 58.5354 6.7078C59.3945 6.4365 60.291 6.30084 61.2258 6.30084ZM62.7406 1.30432C63.3284 1.30432 63.818 1.50026 64.2102 1.89215C64.6015 2.26896 64.798 2.73621 64.798 3.29389C64.798 3.6858 64.6919 4.07015 64.4815 4.44693C64.285 4.82371 63.9989 5.13276 63.6223 5.37389C63.2606 5.59997 62.8537 5.71302 62.4015 5.71302C61.8284 5.71302 61.3458 5.52458 60.9545 5.1478C60.5771 4.75589 60.3815 4.27363 60.3667 3.70084C60.3667 3.32403 60.4641 2.95476 60.6606 2.59302C60.8563 2.21621 61.1354 1.90722 61.4971 1.66606C61.8589 1.4249 62.2728 1.30432 62.7406 1.30432ZM71.7658 6.1878C72.685 6.1878 73.4919 6.32345 74.185 6.59476C74.878 6.85102 75.4137 7.21276 75.7902 7.67997C76.1823 8.13215 76.378 8.6371 76.378 9.19476C76.378 9.79763 76.1667 10.295 75.7449 10.6869C75.338 11.0788 74.7806 11.2748 74.0719 11.2748C73.3484 11.2748 72.7832 11.0939 72.3763 10.7321C71.9693 10.3554 71.7658 9.85041 71.7658 9.21737C71.7658 8.91589 71.811 8.59937 71.9015 8.2678C71.2684 8.43363 70.7032 8.76519 70.2058 9.26258C69.7232 9.74493 69.3997 10.3855 69.2337 11.1843C69.1432 11.6365 69.098 12.0435 69.098 12.4052C69.098 13.2191 69.3241 13.8371 69.7763 14.2591C70.2284 14.6811 70.8763 14.8921 71.7206 14.8921C72.2032 14.8921 72.6171 14.8469 72.9641 14.7565C73.311 14.651 73.665 14.5154 74.0267 14.3495C74.3284 14.1988 74.5467 14.1235 74.6823 14.1235C74.7728 14.1235 74.8328 14.1461 74.8632 14.1913C74.8937 14.2215 74.9084 14.2968 74.9084 14.4174C74.9232 14.975 74.6902 15.5628 74.2076 16.1808C73.7406 16.7837 73.085 17.2962 72.2406 17.7182C71.4119 18.1252 70.4771 18.3287 69.4371 18.3287C68.3519 18.3287 67.3876 18.1328 66.5432 17.7408C65.7145 17.3339 65.0658 16.7611 64.5989 16.0226C64.1467 15.2689 63.9206 14.3948 63.9206 13.4C63.9206 12.9328 63.9806 12.4128 64.1015 11.84C64.5084 9.97102 65.405 8.56171 66.7919 7.61215C68.1937 6.66258 69.8519 6.1878 71.7658 6.1878Z" fill="white"/>
<mask id="mask0_4507_8537" style="mask-type:luminance" maskUnits="userSpaceOnUse" x="0" y="0" width="78" height="20">
<path d="M77.9457 0H0.554443V20H77.9457V0Z" fill="white"/>
<path d="M14.8737 3.20345C16.4715 3.20345 17.6998 3.55015 18.559 4.24345C19.4332 4.93676 19.8703 5.85623 19.8703 7.00171C19.8703 7.45389 19.8024 7.92867 19.6668 8.42606C19.2448 9.93328 18.4083 11.0487 17.1572 11.7721C15.9213 12.4956 14.3537 12.8574 12.4546 12.8574H10.1259L9.35722 15.593C9.32713 15.6835 9.312 15.8041 9.312 15.9548C9.312 16.1658 9.35721 16.3391 9.44765 16.4748C9.55321 16.6104 9.70391 16.7687 9.89983 16.9495C10.0657 17.1002 10.1787 17.2133 10.239 17.2887C10.2993 17.3641 10.3294 17.4545 10.3294 17.56C10.3294 17.8162 10.2089 17.9971 9.96765 18.1026C9.72652 18.2081 9.37235 18.2608 8.90505 18.2608H3.23026C2.83843 18.2608 2.54452 18.193 2.34852 18.0574C2.15261 17.9067 2.08478 17.7032 2.14504 17.4469C2.17522 17.3113 2.23548 17.2058 2.32591 17.1304C2.4013 17.04 2.52191 16.942 2.68765 16.8365C2.94391 16.6858 3.14739 16.5275 3.29809 16.3617C3.44887 16.1959 3.56939 15.9397 3.65982 15.593L6.41808 5.84867C6.47843 5.65276 6.50852 5.46432 6.50852 5.28345C6.50852 5.11763 6.47843 4.98197 6.41808 4.8765C6.37287 4.75589 6.30504 4.62023 6.21461 4.46954C6.07896 4.27363 6.01113 4.11536 6.01113 3.99476C6.01113 3.94954 6.02626 3.86667 6.05634 3.74606C6.11669 3.55015 6.24478 3.41447 6.44069 3.3391C6.65174 3.24867 6.96826 3.20345 7.39026 3.20345H14.8737ZM14.2859 8.0191C14.4517 7.46145 14.5346 6.97154 14.5346 6.54954C14.5346 5.67536 14.1277 5.23823 13.3137 5.23823H12.2963L10.6911 10.8226H11.6859C12.319 10.8226 12.8315 10.6267 13.2233 10.2348C13.6303 9.8278 13.9845 9.08928 14.2859 8.0191ZM24.5084 6.30084C25.3826 6.30084 26.0232 6.46667 26.4302 6.79823C26.8371 7.1298 27.0406 7.58197 27.0406 8.15476C27.0406 8.50145 26.9878 8.83302 26.8823 9.14954L24.8023 15.9095C24.7571 16.0904 24.7345 16.2487 24.7345 16.3843C24.7345 16.5802 24.7722 16.7385 24.8476 16.8591C24.923 16.9646 25.0284 17.0701 25.1641 17.1756C25.2696 17.2811 25.345 17.3715 25.3902 17.4469C25.4354 17.5072 25.443 17.5901 25.4128 17.6956C25.3374 17.8915 25.1867 18.0348 24.9606 18.1252C24.7345 18.2156 24.3878 18.2608 23.9206 18.2608H18.7658C18.3739 18.2608 18.0876 18.2006 17.9067 18.08C17.7258 17.9443 17.6656 17.771 17.7258 17.56C17.7861 17.3791 17.9443 17.2208 18.2006 17.0852C18.4267 16.9646 18.6151 16.8215 18.7658 16.6556C18.9165 16.4898 19.0447 16.2261 19.1502 15.8643L21.1171 9.33041C21.1623 9.19476 21.185 9.08171 21.185 8.99128C21.185 8.82545 21.1473 8.69736 21.0719 8.60693C20.9965 8.50145 20.8835 8.39589 20.7328 8.29041C20.5821 8.1698 20.4765 8.06432 20.4163 7.97389C20.356 7.88345 20.3484 7.76284 20.3937 7.61215C20.4841 7.26545 20.9589 6.96406 21.818 6.7078C22.6771 6.4365 23.5739 6.30084 24.5084 6.30084ZM26.0232 1.30432C26.611 1.30432 27.1009 1.50026 27.4928 1.89215C27.8847 2.26896 28.0806 2.73621 28.0806 3.29389C28.0806 3.6858 27.9751 4.07015 27.7641 4.44693C27.5682 4.82371 27.2817 5.13276 26.905 5.37389C26.5432 5.59997 26.1363 5.71302 25.6841 5.71302C25.1113 5.71302 24.629 5.52458 24.2371 5.1478C23.8603 4.75589 23.6643 4.27363 23.6493 3.70084C23.6493 3.32403 23.7473 2.95476 23.9432 2.59302C24.1391 2.21621 24.418 1.90722 24.7797 1.66606C25.1415 1.4249 25.556 1.30432 26.0232 1.30432ZM35.0489 6.1878C35.9683 6.1878 36.7746 6.32345 37.468 6.59476C38.1613 6.85102 38.6963 7.21276 39.0728 7.67997C39.465 8.13215 39.6606 8.6371 39.6606 9.19476C39.6606 9.79763 39.4502 10.295 39.0276 10.6869C38.621 11.0788 38.0633 11.2748 37.355 11.2748C36.6315 11.2748 36.0663 11.0939 35.6593 10.7321C35.2523 10.3554 35.0489 9.85041 35.0489 9.21737C35.0489 8.91589 35.0941 8.59937 35.1845 8.2678C34.5515 8.43363 33.9863 8.76519 33.4889 9.26258C33.0065 9.74493 32.6824 10.3855 32.5167 11.1843C32.4263 11.6365 32.381 12.0435 32.381 12.4052C32.381 13.2191 32.6071 13.8371 33.0593 14.2591C33.5115 14.6811 34.1596 14.8921 35.0037 14.8921C35.4859 14.8921 35.9004 14.8469 36.2471 14.7565C36.5937 14.651 36.948 14.5154 37.3097 14.3495C37.6111 14.1988 37.8297 14.1235 37.9654 14.1235C38.0558 14.1235 38.1161 14.1461 38.1463 14.1913C38.1763 14.2215 38.1915 14.2968 38.1915 14.4174C38.2065 14.975 37.9729 15.5628 37.4906 16.1808C37.0233 16.7837 36.3677 17.2962 35.5237 17.7182C34.6946 18.1252 33.7602 18.3287 32.7202 18.3287C31.635 18.3287 30.6703 18.1328 29.8263 17.7408C28.9972 17.3339 28.3491 16.7611 27.8819 16.0226C27.4297 15.2689 27.2036 14.3948 27.2036 13.4C27.2036 12.9328 27.2639 12.4128 27.3845 11.84C27.7915 9.97102 28.6883 8.56171 30.075 7.61215C31.4767 6.66258 33.1346 6.1878 35.0489 6.1878ZM53.0902 15.1408C53.0606 15.2011 53.045 15.2915 53.045 15.4121C53.045 15.5176 53.0676 15.6006 53.1128 15.6608C53.1737 15.7211 53.2484 15.7513 53.3389 15.7513C53.5197 15.7513 53.671 15.6759 53.791 15.5252C53.9267 15.3594 54.0171 15.2765 54.0623 15.2765C54.138 15.2765 54.198 15.3293 54.2432 15.4348C54.2884 15.5252 54.311 15.6382 54.311 15.7739C54.3267 16.211 54.1832 16.6406 53.8815 17.0626C53.5806 17.4695 53.1354 17.8087 52.5476 18.08C51.9754 18.3362 51.2815 18.4643 50.4676 18.4643C49.4728 18.4643 48.6815 18.2382 48.0937 17.7861C47.5058 17.3188 47.205 16.7008 47.1893 15.9321C47.1893 15.3745 47.325 14.7489 47.5963 14.0556L48.8397 10.8C48.9154 10.6041 48.9528 10.4458 48.9528 10.3252C48.9528 10.1293 48.885 9.9785 48.7493 9.87302C48.6293 9.75241 48.478 9.69215 48.2971 9.69215C47.9658 9.69215 47.6493 9.85041 47.3476 10.1669C47.0467 10.4684 46.8276 10.8452 46.6919 11.2974L45.2902 15.9095C45.2302 16.0754 45.1997 16.2336 45.1997 16.3843C45.1997 16.5652 45.238 16.7159 45.3128 16.8365C45.3884 16.942 45.4936 17.055 45.6293 17.1756C45.7354 17.2661 45.8102 17.3489 45.8554 17.4243C45.9006 17.4997 45.9084 17.5901 45.878 17.6956C45.818 17.8915 45.6745 18.0348 45.4484 18.1252C45.2223 18.2156 44.8684 18.2608 44.3858 18.2608H39.231C38.8397 18.2608 38.5605 18.2006 38.3948 18.08C38.2139 17.9443 38.1461 17.771 38.1913 17.56C38.2516 17.3791 38.4098 17.2208 38.6661 17.0852C38.8919 16.9646 39.0806 16.8215 39.231 16.6556C39.3823 16.4898 39.5102 16.2261 39.6154 15.8643L41.6276 9.33041C41.658 9.25502 41.6728 9.14954 41.6728 9.01389C41.6728 8.84806 41.6354 8.71997 41.5597 8.62954C41.4997 8.5391 41.3945 8.42606 41.2432 8.29041C41.0928 8.1698 40.9876 8.06432 40.9267 7.97389C40.8667 7.88345 40.8589 7.76284 40.9041 7.61215C40.9945 7.26545 41.4693 6.96406 42.3284 6.7078C43.1876 6.4365 44.085 6.30084 45.0189 6.30084C45.7728 6.30084 46.3684 6.51189 46.805 6.93389C47.2424 7.34084 47.438 7.91363 47.3928 8.65215C48.011 7.76284 48.6667 7.15241 49.3597 6.82084C50.0536 6.47415 50.8067 6.30084 51.6206 6.30084C52.5406 6.30084 53.2789 6.57971 53.8363 7.13737C54.4093 7.69502 54.6954 8.4185 54.6954 9.3078C54.6954 9.77502 54.6206 10.2348 54.4693 10.6869L53.0902 15.1408ZM61.2258 6.30084C62.0997 6.30084 62.7406 6.46667 63.1476 6.79823C63.5545 7.1298 63.758 7.58197 63.758 8.15476C63.758 8.50145 63.705 8.83302 63.5997 9.14954L61.5197 15.9095C61.4745 16.0904 61.4519 16.2487 61.4519 16.3843C61.4519 16.5802 61.4893 16.7385 61.565 16.8591C61.6397 16.9646 61.7458 17.0701 61.8815 17.1756C61.9867 17.2811 62.0624 17.3715 62.1076 17.4469C62.1528 17.5072 62.1597 17.5901 62.1302 17.6956C62.0545 17.8915 61.9041 18.0348 61.678 18.1252C61.4519 18.2156 61.105 18.2608 60.638 18.2608H55.4832C55.091 18.2608 54.805 18.2006 54.6241 18.08C54.4432 17.9443 54.3823 17.771 54.4432 17.56C54.5032 17.3791 54.6615 17.2208 54.918 17.0852C55.1441 16.9646 55.3319 16.8215 55.4832 16.6556C55.6337 16.4898 55.7615 16.2261 55.8676 15.8643L57.8345 9.33041C57.8797 9.19476 57.9023 9.08171 57.9023 8.99128C57.9023 8.82545 57.8641 8.69736 57.7893 8.60693C57.7136 8.50145 57.6006 8.39589 57.4502 8.29041C57.2989 8.1698 57.1937 8.06432 57.1337 7.97389C57.0728 7.88345 57.0658 7.76284 57.111 7.61215C57.2015 7.26545 57.6763 6.96406 58.5354 6.7078C59.3945 6.4365 60.291 6.30084 61.2258 6.30084ZM62.7406 1.30432C63.3284 1.30432 63.818 1.50026 64.2102 1.89215C64.6015 2.26896 64.798 2.73621 64.798 3.29389C64.798 3.6858 64.6919 4.07015 64.4815 4.44693C64.285 4.82371 63.9989 5.13276 63.6223 5.37389C63.2606 5.59997 62.8537 5.71302 62.4015 5.71302C61.8284 5.71302 61.3458 5.52458 60.9545 5.1478C60.5771 4.75589 60.3815 4.27363 60.3667 3.70084C60.3667 3.32403 60.4641 2.95476 60.6606 2.59302C60.8563 2.21621 61.1354 1.90722 61.4971 1.66606C61.8589 1.4249 62.2728 1.30432 62.7406 1.30432ZM71.7658 6.1878C72.685 6.1878 73.4919 6.32345 74.185 6.59476C74.878 6.85102 75.4137 7.21276 75.7902 7.67997C76.1823 8.13215 76.378 8.6371 76.378 9.19476C76.378 9.79763 76.1667 10.295 75.7449 10.6869C75.338 11.0788 74.7806 11.2748 74.0719 11.2748C73.3484 11.2748 72.7832 11.0939 72.3763 10.7321C71.9693 10.3554 71.7658 9.85041 71.7658 9.21737C71.7658 8.91589 71.811 8.59937 71.9015 8.2678C71.2684 8.43363 70.7032 8.76519 70.2058 9.26258C69.7232 9.74493 69.3997 10.3855 69.2337 11.1843C69.1432 11.6365 69.098 12.0435 69.098 12.4052C69.098 13.2191 69.3241 13.8371 69.7763 14.2591C70.2284 14.6811 70.8763 14.8921 71.7206 14.8921C72.2032 14.8921 72.6171 14.8469 72.9641 14.7565C73.311 14.651 73.665 14.5154 74.0267 14.3495C74.3284 14.1988 74.5467 14.1235 74.6823 14.1235C74.7728 14.1235 74.8328 14.1461 74.8632 14.1913C74.8937 14.2215 74.9084 14.2968 74.9084 14.4174C74.9232 14.975 74.6902 15.5628 74.2076 16.1808C73.7406 16.7837 73.085 17.2962 72.2406 17.7182C71.4119 18.1252 70.4771 18.3287 69.4371 18.3287C68.3519 18.3287 67.3876 18.1328 66.5432 17.7408C65.7145 17.3339 65.0658 16.7611 64.5989 16.0226C64.1467 15.2689 63.9206 14.3948 63.9206 13.4C63.9206 12.9328 63.9806 12.4128 64.1015 11.84C64.5084 9.97102 65.405 8.56171 66.7919 7.61215C68.1937 6.66258 69.8519 6.1878 71.7658 6.1878Z" fill="black"/>
</mask>
<g mask="url(#mask0_4507_8537)">
<path d="M18.5589 4.24351L18.0128 4.92021L18.0185 4.92481L18.5589 4.24351ZM19.6667 8.42612L20.5041 8.66055L20.5057 8.6549L19.6667 8.42612ZM17.1571 11.7722L16.7218 11.0194L16.7178 11.0218L17.1571 11.7722ZM10.1258 12.8574V11.9879H9.46696L9.2887 12.6222L10.1258 12.8574ZM9.35713 15.5931L10.1821 15.868L10.1887 15.8483L10.1943 15.8283L9.35713 15.5931ZM9.44757 16.4748L8.72409 16.9572L8.74165 16.9836L8.76122 17.0086L9.44757 16.4748ZM9.89974 16.9496L9.30992 17.5886L9.31487 17.593L9.89974 16.9496ZM2.34844 18.0574L1.81826 18.7466L1.83557 18.7599L1.85348 18.7724L2.34844 18.0574ZM2.14496 17.447L2.99148 17.6462L2.99383 17.6356L2.14496 17.447ZM2.32583 17.1305L2.88252 17.7985L2.94322 17.7479L2.99383 17.6872L2.32583 17.1305ZM2.68757 16.8366L2.2467 16.0871L2.23357 16.0947L2.2207 16.1029L2.68757 16.8366ZM3.65974 15.5931L2.82304 15.3562L2.82061 15.3649L2.81835 15.3736L3.65974 15.5931ZM6.418 5.84873L5.58687 5.59299L5.584 5.60238L5.58131 5.61186L6.418 5.84873ZM6.418 4.87655L5.60383 5.18186L5.62835 5.24734L5.66305 5.30795L6.418 4.87655ZM6.21453 4.4696L6.96018 4.02221L6.94565 3.99795L6.92948 3.97464L6.21453 4.4696ZM6.05626 3.74612L5.22513 3.49038L5.21835 3.51264L5.2127 3.53525L6.05626 3.74612ZM6.44061 3.33916L6.75279 4.15073L6.76809 4.1449L6.78313 4.13838L6.44061 3.33916ZM14.2858 8.01916L13.4524 7.77134L13.4505 7.77734L13.4489 7.78342L14.2858 8.01916ZM12.2963 5.23829V4.36873H11.6415L11.4605 4.99803L12.2963 5.23829ZM10.691 10.8226L9.85531 10.5824L9.53635 11.6922H10.691V10.8226ZM14.8737 4.07308C16.359 4.07308 17.3644 4.3969 18.0128 4.92021L19.105 3.56681C18.0352 2.70348 16.5837 2.33394 14.8737 2.33394V4.07308ZM18.0185 4.92481C18.6784 5.44812 19.0006 6.11351 19.0006 7.00177H20.7397C20.7397 5.59908 20.1878 4.42551 19.0992 3.56221L18.0185 4.92481ZM19.0006 7.00177C19.0006 7.36673 18.9459 7.76429 18.8278 8.19734L20.5057 8.6549C20.6589 8.09316 20.7397 7.54116 20.7397 7.00177H19.0006ZM18.8294 8.19168C18.463 9.50029 17.759 10.4196 16.7218 11.0194L17.5925 12.525C19.0573 11.6779 20.0264 10.3665 20.5041 8.66055L18.8294 8.19168ZM16.7178 11.0218C15.6518 11.6458 14.2481 11.9879 12.4545 11.9879V13.727C14.4592 13.727 16.1906 13.3456 17.5964 12.5226L16.7178 11.0218ZM12.4545 11.9879H10.1258V13.727H12.4545V11.9879ZM9.2887 12.6222L8.52 15.3579L10.1943 15.8283L10.963 13.0926L9.2887 12.6222ZM8.53218 15.3181C8.46044 15.5333 8.44235 15.7584 8.44235 15.9548H10.1815C10.1815 15.9073 10.1839 15.8764 10.1861 15.8592C10.1884 15.8411 10.1893 15.8466 10.1821 15.868L8.53218 15.3181ZM8.44235 15.9548C8.44235 16.2875 8.51401 16.642 8.72409 16.9572L10.1711 15.9925C10.1845 16.0126 10.1878 16.0259 10.1872 16.0236C10.1863 16.0199 10.1815 15.999 10.1815 15.9548H8.44235ZM8.76122 17.0086C8.90731 17.1966 9.09583 17.3909 9.30992 17.5886L10.4896 16.3106C10.3118 16.1466 10.1989 16.0244 10.134 15.941L8.76122 17.0086ZM9.31487 17.593C9.39122 17.6625 9.45027 17.7186 9.49401 17.7623C9.51574 17.784 9.53209 17.8011 9.54383 17.8139C9.556 17.8272 9.56052 17.8328 9.55992 17.8319L10.9179 16.7455C10.8106 16.6113 10.6519 16.4582 10.4847 16.3062L9.31487 17.593ZM9.55992 17.8319C9.52679 17.7906 9.49957 17.7414 9.48174 17.688C9.46435 17.6357 9.45974 17.5908 9.45974 17.56H11.1989C11.1989 17.2767 11.1133 16.9897 10.9179 16.7455L9.55992 17.8319ZM9.45974 17.56C9.45974 17.5478 9.46444 17.4819 9.51539 17.4055C9.56522 17.3306 9.61957 17.3058 9.61905 17.3059L10.3161 18.8993C10.5568 18.794 10.7919 18.6259 10.9624 18.3702C11.1339 18.1129 11.1989 17.8285 11.1989 17.56H9.45974ZM9.61905 17.3059C9.54226 17.3396 9.33096 17.3913 8.90496 17.3913V19.1305C9.41348 19.1305 9.91061 19.0767 10.3161 18.8993L9.61905 17.3059ZM8.90496 17.3913H3.23018V19.1305H8.90496V17.3913ZM3.23018 17.3913C3.08165 17.3913 2.97844 17.3782 2.91139 17.3627C2.84435 17.3472 2.83035 17.3334 2.8434 17.3425L1.85348 18.7724C2.26148 19.0548 2.76487 19.1305 3.23018 19.1305V17.3913ZM2.87861 17.3682C2.89644 17.3819 2.9467 17.4301 2.97557 17.5168C3.00313 17.5994 2.98992 17.6531 2.99148 17.6462L1.29853 17.2479C1.23983 17.4972 1.23035 17.7806 1.32566 18.0667C1.42244 18.3569 1.60452 18.5822 1.81826 18.7466L2.87861 17.3682ZM2.99383 17.6356C2.99261 17.641 2.98661 17.6646 2.96783 17.6975C2.94818 17.7319 2.91957 17.7676 2.88252 17.7985L1.76913 16.4625C1.50557 16.6821 1.36018 16.9701 1.29609 17.2584L2.99383 17.6356ZM2.99383 17.6872C2.98627 17.6963 2.99157 17.6881 3.02113 17.664C3.04966 17.6408 3.09279 17.6094 3.15444 17.5702L2.2207 16.1029C2.0227 16.229 1.81635 16.3835 1.65783 16.5738L2.99383 17.6872ZM3.12844 17.586C3.43705 17.4046 3.71626 17.1945 3.94148 16.9467L2.65461 15.7768C2.57835 15.8607 2.45061 15.9672 2.2467 16.0871L3.12844 17.586ZM3.94148 16.9467C4.22696 16.6326 4.39426 16.2223 4.50113 15.8126L2.81835 15.3736C2.74435 15.6572 2.67052 15.7593 2.65461 15.7768L3.94148 16.9467ZM4.49644 15.8299L7.2547 6.0856L5.58131 5.61186L2.82304 15.3562L4.49644 15.8299ZM7.24913 6.10447C7.33157 5.83655 7.378 5.56177 7.378 5.28351H5.63887C5.63887 5.36699 5.62505 5.46908 5.58687 5.59299L7.24913 6.10447ZM7.378 5.28351C7.378 5.01925 7.33087 4.72134 7.17305 4.44516L5.66305 5.30795C5.64418 5.27499 5.63818 5.25142 5.63696 5.24603C5.636 5.24142 5.63887 5.25229 5.63887 5.28351H7.378ZM7.23226 4.57125C7.16322 4.38716 7.0687 4.20299 6.96018 4.02221L5.46887 4.91699C5.54131 5.0376 5.58244 5.12473 5.60383 5.18186L7.23226 4.57125ZM6.92948 3.97464C6.90722 3.94247 6.89105 3.91655 6.87957 3.89655C6.86792 3.87638 6.8627 3.86481 6.86122 3.86142C6.85957 3.85768 6.86383 3.86664 6.8687 3.88681C6.87357 3.9069 6.88061 3.94412 6.88061 3.99481H5.14148C5.14148 4.39586 5.34531 4.74168 5.49957 4.96455L6.92948 3.97464ZM6.88061 3.99481C6.88061 4.01273 6.87992 4.02681 6.87931 4.03595C6.87861 4.04525 6.87792 4.05195 6.87748 4.05542C6.8767 4.06195 6.87644 4.06221 6.87792 4.05429C6.87922 4.04681 6.88157 4.03499 6.8854 4.01812C6.88905 4.00142 6.89383 3.98116 6.89991 3.95699L5.2127 3.53525C5.18531 3.64464 5.14148 3.82716 5.14148 3.99481H6.88061ZM6.8874 4.00186C6.88227 4.01864 6.86609 4.05603 6.82974 4.09447C6.79391 4.13247 6.76087 4.14768 6.75279 4.15073L6.12844 2.52755C5.69035 2.69605 5.36618 3.03226 5.22513 3.49038L6.8874 4.00186ZM6.78313 4.13838C6.82983 4.11838 7.00374 4.07308 7.39018 4.07308V2.33394C6.93261 2.33394 6.47348 2.37903 6.09809 2.5399L6.78313 4.13838ZM7.39018 4.07308H14.8737V2.33394H7.39018V4.07308ZM15.1194 8.26699C15.3007 7.6569 15.4041 7.08047 15.4041 6.5496H13.665C13.665 6.86273 13.6026 7.26603 13.4524 7.77134L15.1194 8.26699ZM15.4041 6.5496C15.4041 5.99325 15.2759 5.41412 14.8657 4.9736C14.4447 4.52134 13.8712 4.36873 13.3137 4.36873V6.10786C13.4417 6.10786 13.5167 6.12534 13.5547 6.1389C13.573 6.14542 13.5826 6.15108 13.5866 6.1536C13.5904 6.15603 13.5918 6.15751 13.5929 6.15864C13.5932 6.15899 13.6098 6.17586 13.6277 6.2336C13.6468 6.2949 13.665 6.39577 13.665 6.5496H15.4041ZM13.3137 4.36873H12.2963V6.10786H13.3137V4.36873ZM11.4605 4.99803L9.85531 10.5824L11.5268 11.0629L13.132 5.47855L11.4605 4.99803ZM10.691 11.6922H11.6858V9.95307H10.691V11.6922ZM11.6858 11.6922C12.5138 11.6922 13.2596 11.4282 13.8381 10.8497L12.6083 9.61995C12.4031 9.82516 12.1239 9.95307 11.6858 9.95307V11.6922ZM13.8381 10.8497C14.4093 10.2785 14.8122 9.35786 15.1229 8.2549L13.4489 7.78342C13.1566 8.82073 12.8511 9.37725 12.6083 9.61995L13.8381 10.8497ZM26.8823 9.1496L26.0573 8.87464L26.0541 8.88421L26.0511 8.89386L26.8823 9.1496ZM24.8023 15.9096L23.9711 15.6539L23.9643 15.6761L23.9586 15.6987L24.8023 15.9096ZM24.8475 16.8592L24.1101 17.32L24.1243 17.3427L24.1399 17.3646L24.8475 16.8592ZM25.164 17.1757L25.7789 16.5608L25.7406 16.5226L25.6978 16.4893L25.164 17.1757ZM25.3901 17.447L24.6444 17.8944L24.6675 17.9328L24.6944 17.9687L25.3901 17.447ZM25.4127 17.6957L26.2243 18.0079L26.2382 17.9718L26.2488 17.9346L25.4127 17.6957ZM17.9066 18.08L17.3849 18.7757L17.4042 18.7902L17.4243 18.8036L17.9066 18.08ZM17.7257 17.56L16.9008 17.2851L16.8948 17.303L16.8897 17.3212L17.7257 17.56ZM18.2005 17.0853L18.6074 17.8538L18.6097 17.8526L18.2005 17.0853ZM19.1501 15.8644L18.3174 15.6137L18.3153 15.6209L19.1501 15.8644ZM21.117 9.33047L20.2921 9.05551L20.2881 9.0676L20.2843 9.07977L21.117 9.33047ZM21.0718 8.60699L20.3643 9.11238L20.383 9.13881L20.4038 9.16368L21.0718 8.60699ZM20.7327 8.29047L20.1895 8.96951L20.2112 8.9869L20.234 9.00282L20.7327 8.29047ZM20.3936 7.61221L21.2264 7.86203L21.231 7.84699L21.235 7.83168L20.3936 7.61221ZM21.8179 6.70786L22.0664 7.54116L22.0731 7.53916L22.0797 7.53708L21.8179 6.70786ZM27.4927 1.89221L26.8778 2.50708L26.8838 2.51311L26.89 2.51901L27.4927 1.89221ZM27.764 4.44699L27.0053 4.02212L26.9987 4.03386L26.9925 4.04577L27.764 4.44699ZM26.9049 5.37395L27.3657 6.11134L27.3736 6.10638L26.9049 5.37395ZM24.237 5.14786L23.6103 5.75055L23.622 5.76281L23.6343 5.77464L24.237 5.14786ZM23.6492 3.7009H22.7797V3.71238L22.7799 3.72377L23.6492 3.7009ZM23.9431 2.59308L24.7077 3.00723L24.7112 3.00077L24.7146 2.99425L23.9431 2.59308ZM24.5083 7.17047C25.3049 7.17047 25.7029 7.32742 25.8808 7.47238L26.9794 6.12421C26.3434 5.60595 25.4603 5.43134 24.5083 5.43134V7.17047ZM25.8808 7.47238C26.065 7.62247 26.171 7.81638 26.171 8.15481H27.9101C27.9101 7.34777 27.6091 6.63734 26.9794 6.12421L25.8808 7.47238ZM26.171 8.15481C26.171 8.41168 26.1321 8.65021 26.0573 8.87464L27.7072 9.42455C27.8434 9.01594 27.9101 8.59125 27.9101 8.15481H26.171ZM26.0511 8.89386L23.9711 15.6539L25.6334 16.1653L27.7134 9.40534L26.0511 8.89386ZM23.9586 15.6987C23.9021 15.9248 23.8649 16.1567 23.8649 16.3844H25.604C25.604 16.3407 25.6119 16.2561 25.6458 16.1205L23.9586 15.6987ZM23.8649 16.3844C23.8649 16.684 23.9216 17.0184 24.1101 17.32L25.5849 16.3983C25.6038 16.4286 25.6087 16.449 25.6086 16.4486C25.6085 16.4483 25.6073 16.4432 25.6062 16.4323C25.605 16.4214 25.604 16.4057 25.604 16.3844H23.8649ZM24.1399 17.3646C24.277 17.5566 24.4483 17.7206 24.6301 17.8621L25.6978 16.4893C25.6084 16.4197 25.5686 16.3727 25.555 16.3538L24.1399 17.3646ZM24.5491 17.7906C24.5879 17.8293 24.6145 17.8588 24.6317 17.8793C24.6496 17.9009 24.651 17.9054 24.6444 17.8944L26.1357 16.9996C26.0373 16.8355 25.905 16.6869 25.7789 16.5608L24.5491 17.7906ZM24.6944 17.9687C24.5117 17.7252 24.5677 17.4879 24.5766 17.4568L26.2488 17.9346C26.318 17.6924 26.3589 17.2894 26.0857 16.9253L24.6944 17.9687ZM24.601 17.3835C24.6045 17.3746 24.6102 17.3629 24.6185 17.3504C24.6269 17.3379 24.6359 17.3275 24.6442 17.3196C24.6612 17.3034 24.6655 17.3067 24.6376 17.3179L25.2835 18.9326C25.6949 18.768 26.0479 18.4664 26.2243 18.0079L24.601 17.3835ZM24.6376 17.3179C24.5701 17.3449 24.3598 17.3913 23.9205 17.3913V19.1305C24.4157 19.1305 24.8988 19.0865 25.2835 18.9326L24.6376 17.3179ZM23.9205 17.3913H18.7657V19.1305H23.9205V17.3913ZM18.7657 17.3913C18.6111 17.3913 18.5045 17.3792 18.4362 17.3648C18.366 17.35 18.3615 17.3382 18.389 17.3565L17.4243 18.8036C17.8226 19.0691 18.3218 19.1305 18.7657 19.1305V17.3913ZM18.4284 17.3844C18.444 17.3961 18.5083 17.4514 18.547 17.5626C18.5865 17.676 18.571 17.7667 18.5618 17.7989L16.8897 17.3212C16.8201 17.5644 16.8047 17.8472 16.9044 18.1339C17.0034 18.4185 17.1884 18.6283 17.3849 18.7757L18.4284 17.3844ZM18.5507 17.835C18.5414 17.8627 18.5301 17.8845 18.5203 17.8997C18.5107 17.9145 18.5039 17.9212 18.5045 17.9206C18.5052 17.9199 18.5125 17.9127 18.5297 17.9006C18.5469 17.8884 18.5721 17.8725 18.6074 17.8538L17.7937 16.3167C17.4402 16.5039 17.061 16.8044 16.9008 17.2851L18.5507 17.835ZM18.6097 17.8526C18.9113 17.6917 19.1825 17.4899 19.4091 17.2406L18.1223 16.0707C18.0475 16.1531 17.9419 16.2377 17.7913 16.3179L18.6097 17.8526ZM19.4091 17.2406C19.6897 16.9319 19.8644 16.521 19.9849 16.1079L18.3153 15.6209C18.2248 15.9313 18.1431 16.0478 18.1223 16.0707L19.4091 17.2406ZM19.9827 16.1151L21.9497 9.58116L20.2843 9.07977L18.3174 15.6137L19.9827 16.1151ZM21.942 9.60542C22.0017 9.42638 22.0544 9.21334 22.0544 8.99134H20.3153C20.3153 8.96621 20.3182 8.95855 20.3152 8.97342C20.3124 8.98734 20.3059 9.01412 20.2921 9.05551L21.942 9.60542ZM22.0544 8.99134C22.0544 8.70412 21.9897 8.35012 21.7398 8.05029L20.4038 9.16368C20.3046 9.04473 20.3153 8.94699 20.3153 8.99134H22.0544ZM21.7794 8.1016C21.6281 7.88977 21.4318 7.71847 21.2313 7.57812L20.234 9.00282C20.2821 9.03655 20.3153 9.06403 20.3372 9.08447C20.3592 9.10499 20.3659 9.11473 20.3643 9.11238L21.7794 8.1016ZM21.2759 7.61142C21.2188 7.56577 21.18 7.53064 21.1554 7.50603C21.1293 7.47995 21.1288 7.47525 21.1397 7.4916L19.6926 8.45629C19.8269 8.6576 20.0142 8.82925 20.1895 8.96951L21.2759 7.61142ZM21.1397 7.4916C21.2037 7.58768 21.2284 7.68629 21.2331 7.76142C21.2374 7.8296 21.225 7.86716 21.2264 7.86203L19.5607 7.36238C19.4755 7.64638 19.4332 8.06716 19.6926 8.45629L21.1397 7.4916ZM21.235 7.83168C21.2003 7.96438 21.1303 7.95751 21.2836 7.86021C21.4256 7.77003 21.6739 7.65821 22.0664 7.54116L21.5694 5.87455C21.1028 6.01368 20.6842 6.18073 20.3514 6.39203C20.0298 6.59612 19.6772 6.91334 19.5522 7.39273L21.235 7.83168ZM22.0797 7.53708C22.851 7.29351 23.6593 7.17047 24.5083 7.17047V5.43134C23.4883 5.43134 22.503 5.5796 21.5561 5.87864L22.0797 7.53708ZM26.0231 2.17394C26.3958 2.17394 26.6597 2.28893 26.8778 2.50708L28.1076 1.27733C27.5419 0.71171 26.826 0.434814 26.0231 0.434814V2.17394ZM26.89 2.51901C27.1064 2.72718 27.211 2.96592 27.211 3.29395H28.9501C28.9501 2.50661 28.6627 1.81086 28.0954 1.2654L26.89 2.51901ZM27.211 3.29395C27.211 3.52221 27.1512 3.76151 27.0053 4.02212L28.5227 4.87186C28.7988 4.37881 28.9501 3.84942 28.9501 3.29395H27.211ZM26.9925 4.04577C26.8705 4.28029 26.6919 4.47786 26.4361 4.64151L27.3736 6.10638C27.8715 5.78768 28.2656 5.36725 28.5355 4.84821L26.9925 4.04577ZM26.444 4.63655C26.2289 4.77099 25.9834 4.84351 25.684 4.84351V6.58264C26.289 6.58264 26.8574 6.42908 27.3657 6.11134L26.444 4.63655ZM25.684 4.84351C25.3227 4.84351 25.0603 4.73316 24.8397 4.52108L23.6343 5.77464C24.1976 6.31621 24.8998 6.58264 25.684 6.58264V4.84351ZM24.8638 4.54516C24.646 4.31855 24.5282 4.04681 24.5184 3.67803L22.7799 3.72377C22.8004 4.50047 23.0745 5.19342 23.6103 5.75055L24.8638 4.54516ZM24.5188 3.7009C24.5188 3.48177 24.5742 3.25375 24.7077 3.00723L23.1785 2.17892C22.9202 2.65588 22.7797 3.16645 22.7797 3.7009H24.5188ZM24.7146 2.99425C24.8412 2.75072 25.0192 2.55146 25.262 2.38964L24.2973 0.942597C23.8165 1.26309 23.4369 1.68181 23.1717 2.1919L24.7146 2.99425ZM25.262 2.38964C25.4701 2.2509 25.7141 2.17394 26.0231 2.17394V0.434814C25.3977 0.434814 24.8127 0.599015 24.2973 0.942597L25.262 2.38964ZM37.4679 6.59481L37.151 7.40455L37.1587 7.4076L37.1664 7.41047L37.4679 6.59481ZM39.0727 7.68003L38.3963 8.22594L38.4059 8.23786L38.416 8.24951L39.0727 7.68003ZM39.0275 10.687L38.4362 10.0498L38.4304 10.0552L38.4247 10.0606L39.0275 10.687ZM35.6592 10.7322L35.0684 11.3703L35.0749 11.3763L35.0815 11.3821L35.6592 10.7322ZM35.1844 8.26786L36.0233 8.49664L36.419 7.0456L34.9641 7.42664L35.1844 8.26786ZM32.5166 11.1844L31.6651 11.0077L31.6639 11.0139L32.5166 11.1844ZM36.247 14.7566L36.4665 15.5979L36.4835 15.5935L36.5002 15.5885L36.247 14.7566ZM37.3097 14.3496L37.6719 15.1401L37.6853 15.1339L37.6985 15.1273L37.3097 14.3496ZM38.1462 14.1913L37.4226 14.6737L37.4704 14.7453L37.5313 14.8062L38.1462 14.1913ZM38.1914 14.4174H37.3218V14.4292L37.3221 14.4409L38.1914 14.4174ZM37.4905 16.1809L36.805 15.6459L36.8032 15.6482L37.4905 16.1809ZM35.5236 17.7183L35.9068 18.4989L35.9124 18.496L35.5236 17.7183ZM29.8262 17.7409L29.443 18.5215L29.4514 18.5256L29.46 18.5296L29.8262 17.7409ZM27.8818 16.0226L27.1362 16.47L27.1415 16.4788L27.147 16.4875L27.8818 16.0226ZM27.3844 11.84L26.5347 11.655L26.5335 11.6609L27.3844 11.84ZM30.0749 7.61221L29.5871 6.89229L29.5836 6.89473L30.0749 7.61221ZM35.0488 7.05742C35.8844 7.05742 36.5793 7.1809 37.151 7.40455L37.7848 5.78508C36.9698 5.46612 36.052 5.31829 35.0488 5.31829V7.05742ZM37.1664 7.41047C37.7465 7.62481 38.1383 7.90621 38.3963 8.22594L39.7501 7.13412C39.2544 6.51942 38.5759 6.07725 37.7693 5.77916L37.1664 7.41047ZM38.416 8.24951C38.6817 8.55612 38.7914 8.86229 38.7914 9.19481H40.5301C40.5301 8.41194 40.2484 7.70829 39.7301 7.11055L38.416 8.24951ZM38.7914 9.19481C38.7914 9.56864 38.6719 9.8309 38.4362 10.0498L39.6197 11.3242C40.2284 10.7592 40.5301 10.0267 40.5301 9.19481H38.7914ZM38.4247 10.0606C38.2183 10.2593 37.8983 10.4052 37.3549 10.4052V12.1444C38.2283 12.1444 39.0231 11.8984 39.631 11.3133L38.4247 10.0606ZM37.3549 10.4052C36.7731 10.4052 36.4385 10.2615 36.2369 10.0823L35.0815 11.3821C35.6938 11.9264 36.4896 12.1444 37.3549 12.1444V10.4052ZM36.25 10.0941C36.0466 9.90586 35.9184 9.64595 35.9184 9.21742H34.1792C34.1792 10.055 34.4578 10.8049 35.0684 11.3703L36.25 10.0941ZM35.9184 9.21742C35.9184 9.00316 35.9504 8.76395 36.0233 8.49664L34.3455 8.03908C34.2375 8.43499 34.1792 8.82873 34.1792 9.21742H35.9184ZM34.9641 7.42664C34.1706 7.63447 33.4719 8.04968 32.8739 8.64777L34.1037 9.87751C34.5003 9.48081 34.9321 9.23282 35.4047 9.10908L34.9641 7.42664ZM32.8739 8.64777C32.2499 9.27177 31.8585 10.0759 31.6651 11.0077L33.368 11.3611C33.5062 10.6953 33.763 10.2181 34.1037 9.87751L32.8739 8.64777ZM31.6639 11.0139C31.5651 11.5077 31.5114 11.9732 31.5114 12.4053H33.2505C33.2505 12.1139 33.2871 11.7654 33.3692 11.3549L31.6639 11.0139ZM31.5114 12.4053C31.5114 13.3803 31.7865 14.2608 32.4659 14.8949L33.6525 13.6234C33.4275 13.4134 33.2505 13.058 33.2505 12.4053H31.5114ZM32.4659 14.8949C33.1301 15.5148 34.0207 15.7618 35.0036 15.7618V14.0226C34.2983 14.0226 33.8926 13.8476 33.6525 13.6234L32.4659 14.8949ZM35.0036 15.7618C35.5362 15.7618 36.0283 15.7123 36.4665 15.5979L36.0275 13.9152C35.7724 13.9817 35.4356 14.0226 35.0036 14.0226V15.7618ZM36.5002 15.5885C36.8876 15.4706 37.2782 15.3206 37.6719 15.1401L36.9473 13.5591C36.6176 13.7102 36.2998 13.8315 35.9938 13.9246L36.5002 15.5885ZM37.6985 15.1273C37.829 15.0621 37.9221 15.0232 37.9831 15.0021C38.0129 14.9919 38.0274 14.9885 38.029 14.9882C38.0322 14.9875 38.0085 14.9931 37.9653 14.9931V13.2539C37.7564 13.2539 37.5619 13.3077 37.4162 13.3579C37.2586 13.4123 37.0917 13.4864 36.9208 13.5719L37.6985 15.1273ZM37.9653 14.9931C37.9451 14.9931 37.8713 14.9915 37.773 14.9546C37.6648 14.9141 37.5263 14.8293 37.4226 14.6737L38.8701 13.709C38.5937 13.2952 38.151 13.2539 37.9653 13.2539V14.9931ZM37.5313 14.8062C37.4386 14.7136 37.3904 14.6204 37.3667 14.565C37.3422 14.5079 37.3317 14.4627 37.3274 14.441C37.3192 14.4003 37.3218 14.386 37.3218 14.4174H39.0605C39.0605 14.3282 39.0562 14.216 39.0327 14.0999C39.0153 14.0112 38.9605 13.7764 38.761 13.5765L37.5313 14.8062ZM37.3221 14.4409C37.3299 14.7286 37.2126 15.1235 36.805 15.6459L38.176 16.7159C38.7329 16.0024 39.0831 15.2216 39.0605 14.3939L37.3221 14.4409ZM36.8032 15.6482C36.4324 16.1266 35.8891 16.5632 35.1347 16.9406L35.9124 18.496C36.846 18.0292 37.6141 17.441 38.1778 16.7136L36.8032 15.6482ZM35.1404 16.9377C34.4449 17.2791 33.6441 17.4592 32.7201 17.4592V19.1983C33.876 19.1983 34.9443 18.9714 35.9068 18.4989L35.1404 16.9377ZM32.7201 17.4592C31.7404 17.4592 30.9041 17.2826 30.1924 16.9522L29.46 18.5296C30.4363 18.9829 31.5292 19.1983 32.7201 19.1983V17.4592ZM30.2093 16.9603C29.5159 16.6199 28.9931 16.1528 28.6166 15.5578L27.147 16.4875C27.705 17.3696 28.4784 18.0479 29.443 18.5215L30.2093 16.9603ZM28.6275 15.5753C28.2666 14.9739 28.0731 14.2585 28.0731 13.4H26.334C26.334 14.5312 26.5926 15.5641 27.1362 16.47L28.6275 15.5753ZM28.0731 13.4C28.0731 13.0059 28.1242 12.5471 28.2353 12.0192L26.5335 11.6609C26.4035 12.2785 26.334 12.8598 26.334 13.4H28.0731ZM28.2341 12.0251C28.6009 10.3405 29.388 9.13647 30.5662 8.32968L29.5836 6.89473C27.9883 7.98708 26.9817 9.6016 26.5347 11.655L28.2341 12.0251ZM30.5625 8.33212C31.802 7.49247 33.285 7.05742 35.0488 7.05742V5.31829C32.9842 5.31829 31.1511 5.83281 29.5871 6.89229L30.5625 8.33212ZM53.0901 15.1409L53.8683 15.5298L53.8997 15.4661L53.9214 15.3981L53.0901 15.1409ZM53.1127 15.6609L52.417 16.1826L52.4544 16.2321L52.4979 16.2758L53.1127 15.6609ZM53.791 15.5252L53.1179 14.9746L53.1118 14.982L53.791 15.5252ZM54.2431 15.4348L53.444 15.7773L53.4544 15.8008L53.4657 15.8237L54.2431 15.4348ZM54.311 15.7739H53.4414V15.7889L53.4423 15.8039L54.311 15.7739ZM53.8814 17.0626L54.5805 17.5802L54.5849 17.5742L54.5892 17.568L53.8814 17.0626ZM52.5475 18.08L52.9031 18.8739L52.9118 18.8696L52.5475 18.08ZM48.0936 17.7861L47.5527 18.4668L47.5579 18.4712L47.564 18.4753L48.0936 17.7861ZM47.1892 15.9322H46.3197V15.9407V15.9493L47.1892 15.9322ZM47.5962 14.0557L48.4066 14.3726L48.4083 14.3659L47.5962 14.0557ZM48.8397 10.8L48.0284 10.4879L48.0275 10.4898L48.8397 10.8ZM48.7492 9.87308L48.1344 10.4879L48.1727 10.5262L48.2153 10.5595L48.7492 9.87308ZM47.3475 10.167L47.9623 10.7819L47.9701 10.7744L47.977 10.7667L47.3475 10.167ZM46.6918 11.2974L47.524 11.5503L47.5249 11.5472L46.6918 11.2974ZM45.2901 15.9096L46.1075 16.2067L46.1153 16.1848L46.1223 16.1625L45.2901 15.9096ZM45.3127 16.8366L44.5753 17.2974L44.5901 17.3201L44.6057 17.3419L45.3127 16.8366ZM45.6292 17.1757L45.0518 17.8256L45.0579 17.8308L45.0631 17.8359L45.6292 17.1757ZM45.8779 17.6957L46.7092 17.9514L46.7118 17.943L46.7144 17.9346L45.8779 17.6957ZM38.3947 18.08L37.873 18.7757L37.878 18.7795L37.8832 18.7833L38.3947 18.08ZM38.1912 17.56L37.3663 17.2851L37.351 17.3307L37.341 17.3779L38.1912 17.56ZM38.666 17.0853L39.0727 17.8538L39.0753 17.8526L38.666 17.0853ZM39.6153 15.8644L38.7845 15.6085L38.7826 15.6146L38.7808 15.6209L39.6153 15.8644ZM41.6275 9.33047L40.8205 9.00751L40.8075 9.04055L40.797 9.07455L41.6275 9.33047ZM41.5597 8.6296L40.8362 9.11195L40.8623 9.15055L40.8918 9.18629L41.5597 8.6296ZM41.2431 8.29047L41.8249 7.64412L41.8066 7.62725L41.7866 7.61142L41.2431 8.29047ZM40.904 7.61221L41.737 7.86203L41.7414 7.84699L41.7457 7.83168L40.904 7.61221ZM42.3284 6.70786L42.577 7.54116L42.584 7.53916L42.5901 7.53708L42.3284 6.70786ZM46.8049 6.93395L46.2014 7.55951L46.2066 7.56499L46.2127 7.57038L46.8049 6.93395ZM47.3927 8.65221L46.5249 8.59908L46.3353 11.698L48.1066 9.14847L47.3927 8.65221ZM49.3597 6.8209L49.7353 7.60534L49.7423 7.60203L49.7483 7.59864L49.3597 6.8209ZM53.8362 7.13742L53.2214 7.75238L53.2301 7.76047L53.8362 7.13742ZM54.4692 10.687L53.6449 10.412L53.6414 10.4209L53.6388 10.4298L54.4692 10.687ZM52.3127 14.752C52.1918 14.994 52.1753 15.2473 52.1753 15.4122H53.9144C53.9144 15.3858 53.9162 15.3828 53.9144 15.3969C53.9118 15.4086 53.9031 15.4602 53.8683 15.5298L52.3127 14.752ZM52.1753 15.4122C52.1753 15.6324 52.2223 15.9221 52.417 16.1826L53.8083 15.1392C53.9136 15.2791 53.9144 15.403 53.9144 15.4122H52.1753ZM52.4979 16.2758C52.7318 16.5098 53.0336 16.6209 53.3388 16.6209V14.8818C53.3918 14.8818 53.4614 14.8909 53.5379 14.9213C53.6144 14.9522 53.6788 14.9972 53.7275 15.046L52.4979 16.2758ZM53.3388 16.6209C53.804 16.6209 54.197 16.4095 54.4701 16.0685L53.1118 14.982C53.1188 14.9734 53.1466 14.9432 53.1988 14.9171C53.2527 14.89 53.3049 14.8818 53.3388 14.8818V16.6209ZM54.464 16.0759C54.491 16.0432 54.5118 16.0187 54.5275 16.0013C54.544 15.9833 54.551 15.9775 54.5484 15.9798C54.5466 15.9812 54.5405 15.9869 54.5301 15.9953C54.5197 16.0033 54.5005 16.0176 54.4736 16.0341C54.4475 16.0499 54.4031 16.0746 54.3431 16.0968C54.284 16.1185 54.1866 16.1461 54.0623 16.1461V14.407C53.811 14.407 53.6301 14.5113 53.5666 14.5501C53.4831 14.601 53.417 14.6572 53.3736 14.6977C53.2831 14.7805 53.1962 14.8794 53.1179 14.9746L54.464 16.0759ZM54.0623 16.1461C53.8753 16.1461 53.7092 16.0733 53.5918 15.9706C53.491 15.8824 53.4518 15.7961 53.444 15.7773L55.0423 15.0923C54.9423 14.8578 54.6544 14.407 54.0623 14.407V16.1461ZM53.4657 15.8237C53.4492 15.7909 53.4431 15.7668 53.4414 15.7579C53.4397 15.7495 53.4414 15.7536 53.4414 15.7739H55.1805C55.1805 15.5472 55.144 15.2911 55.0214 15.0459L53.4657 15.8237ZM53.4423 15.8039C53.4492 16.0159 53.3857 16.2611 53.1744 16.5572L54.5892 17.568C54.9805 17.0202 55.2031 16.4063 55.1805 15.7439L53.4423 15.8039ZM53.1831 16.5451C52.9892 16.8066 52.6744 17.0638 52.1831 17.2905L52.9118 18.8696C53.5962 18.5537 54.171 18.1326 54.5805 17.5802L53.1831 16.5451ZM52.1927 17.2863C51.7597 17.48 51.1944 17.5948 50.4675 17.5948V19.3339C51.3692 19.3339 52.1901 19.1926 52.9031 18.8739L52.1927 17.2863ZM50.4675 17.5948C49.5997 17.5948 49.0153 17.3979 48.624 17.0969L47.564 18.4753C48.3483 19.0787 49.3466 19.3339 50.4675 19.3339V17.5948ZM48.6353 17.1054C48.2553 16.8038 48.0692 16.4319 48.0588 15.9152L46.3197 15.9493C46.3397 16.9699 46.7562 17.8339 47.5527 18.4668L48.6353 17.1054ZM48.0588 15.9322C48.0588 15.5126 48.1623 14.9968 48.4066 14.3726L46.7866 13.7388C46.4883 14.5013 46.3197 15.2365 46.3197 15.9322H48.0588ZM48.4083 14.3659L49.6518 11.1103L48.0275 10.4898L46.784 13.7454L48.4083 14.3659ZM49.6518 11.1122C49.7414 10.8792 49.8223 10.6037 49.8223 10.3252H48.0831C48.0831 10.2988 48.0866 10.2986 48.0788 10.333C48.071 10.3655 48.0562 10.4162 48.0284 10.4879L49.6518 11.1122ZM49.8223 10.3252C49.8223 9.90368 49.6623 9.48151 49.2831 9.18664L48.2153 10.5595C48.1762 10.5287 48.1353 10.4812 48.1092 10.4221C48.084 10.3664 48.0831 10.3278 48.0831 10.3252H49.8223ZM49.364 9.25821C49.0701 8.96386 48.6936 8.82264 48.297 8.82264V10.5618C48.2901 10.5618 48.2614 10.5602 48.2231 10.5448C48.1831 10.529 48.1536 10.5066 48.1344 10.4879L49.364 9.25821ZM48.297 8.82264C47.6588 8.82264 47.1292 9.13577 46.7179 9.56725L47.977 10.7667C48.1692 10.5652 48.2727 10.5618 48.297 10.5618V8.82264ZM46.7327 9.55212C46.3188 9.96586 46.0318 10.4726 45.8588 11.0476L47.5249 11.5472C47.624 11.2179 47.7736 10.971 47.9623 10.7819L46.7327 9.55212ZM45.8597 11.0446L44.4579 15.6567L46.1223 16.1625L47.524 11.5503L45.8597 11.0446ZM44.4727 15.6125C44.384 15.8576 44.3301 16.1166 44.3301 16.3844H46.0692C46.0692 16.3506 46.0762 16.2932 46.1075 16.2067L44.4727 15.6125ZM44.3301 16.3844C44.3301 16.6844 44.3936 17.0057 44.5753 17.2974L46.0501 16.3757C46.0579 16.3872 46.0623 16.3975 46.0657 16.406C46.0692 16.4144 46.071 16.4201 46.0718 16.4222C46.0727 16.4259 46.0692 16.4151 46.0692 16.3844H44.3301ZM44.6057 17.3419C44.7301 17.5166 44.8849 17.6776 45.0518 17.8256L46.2075 16.5258C46.1023 16.4326 46.0466 16.3675 46.0205 16.3312L44.6057 17.3419ZM45.0631 17.8359C45.0953 17.863 45.1136 17.8813 45.1214 17.8906C45.131 17.9006 45.1231 17.8944 45.1101 17.8718L46.6014 16.977C46.4884 16.7888 46.3353 16.6357 46.1953 16.5154L45.0631 17.8359ZM45.1101 17.8718C45.0614 17.7915 45.0353 17.7039 45.0283 17.6209C45.0223 17.5421 45.0344 17.4846 45.0423 17.4568L46.7144 17.9346C46.7927 17.6591 46.7997 17.3078 46.6014 16.977L45.1101 17.8718ZM45.0466 17.4399C45.0518 17.4243 45.0597 17.4053 45.0718 17.3853C45.084 17.3653 45.097 17.3484 45.111 17.3352C45.137 17.3084 45.151 17.3077 45.1257 17.3179L45.7718 18.9326C46.191 18.765 46.557 18.4468 46.7092 17.9514L45.0466 17.4399ZM45.1257 17.3179C45.0605 17.344 44.8449 17.3913 44.3857 17.3913V19.1305C44.8918 19.1305 45.3849 19.0873 45.7718 18.9326L45.1257 17.3179ZM44.3857 17.3913H39.231V19.1305H44.3857V17.3913ZM39.231 17.3913C39.0762 17.3913 38.9736 17.379 38.9118 17.3658C38.8475 17.3519 38.8605 17.3439 38.9057 17.3768L37.8832 18.7833C38.2819 19.0732 38.7983 19.1305 39.231 19.1305V17.3913ZM38.9162 17.3844C38.9275 17.3926 38.9814 17.438 39.0179 17.5314C39.0553 17.6276 39.0484 17.7082 39.0414 17.7422L37.341 17.3779C37.2884 17.6228 37.2929 17.8956 37.3983 18.1652C37.5027 18.4319 37.681 18.6318 37.873 18.7757L38.9162 17.3844ZM39.0162 17.835C39.0066 17.8627 38.9953 17.8845 38.9857 17.8997C38.9762 17.9145 38.9692 17.9212 38.9701 17.9206C38.971 17.9199 38.9779 17.9127 38.9953 17.9006C39.0127 17.8884 39.0379 17.8725 39.0727 17.8538L38.2591 16.3167C37.9057 16.5039 37.5264 16.8044 37.3663 17.2851L39.0162 17.835ZM39.0753 17.8526C39.377 17.6917 39.6484 17.4899 39.8744 17.2406L38.5877 16.0707C38.513 16.1531 38.4074 16.2377 38.2568 16.3179L39.0753 17.8526ZM39.8744 17.2406C40.1553 16.9319 40.3301 16.521 40.4501 16.1079L38.7808 15.6209C38.6903 15.9313 38.6086 16.0478 38.5877 16.0707L39.8744 17.2406ZM40.4466 16.1203L42.4588 9.58638L40.797 9.07455L38.7845 15.6085L40.4466 16.1203ZM42.4353 9.65342C42.5249 9.42899 42.5423 9.19594 42.5423 9.01394H40.8031C40.8031 9.03194 40.8031 9.04577 40.8023 9.05577C40.8014 9.06595 40.8005 9.07108 40.8005 9.07186C40.8005 9.07273 40.8014 9.06751 40.804 9.05742C40.8066 9.04734 40.811 9.03003 40.8205 9.00751L42.4353 9.65342ZM42.5423 9.01394C42.5423 8.72673 42.4779 8.37273 42.2275 8.0729L40.8918 9.18629C40.7927 9.06734 40.8031 8.9696 40.8031 9.01394H42.5423ZM42.2831 8.14725C42.1623 7.96516 41.9918 7.79421 41.8249 7.64412L40.6614 8.93681C40.724 8.99264 40.7683 9.0369 40.7997 9.07029C40.8327 9.10542 40.8405 9.11864 40.8362 9.11195L42.2831 8.14725ZM41.7866 7.61142C41.7292 7.56577 41.691 7.53064 41.6657 7.50603C41.6397 7.47995 41.6397 7.47525 41.6501 7.4916L40.2031 8.45629C40.3379 8.6576 40.5249 8.82925 40.7005 8.96951L41.7866 7.61142ZM41.6501 7.4916C41.7144 7.58768 41.7388 7.68629 41.744 7.76142C41.7483 7.8296 41.7353 7.86716 41.737 7.86203L40.071 7.36238C39.9857 7.64638 39.944 8.06716 40.2031 8.45629L41.6501 7.4916ZM41.7457 7.83168C41.711 7.96438 41.6414 7.95751 41.7944 7.86021C41.9362 7.77003 42.1849 7.65821 42.577 7.54116L42.0797 5.87455C41.6136 6.01368 41.1944 6.18073 40.8623 6.39203C40.5405 6.59612 40.1875 6.91334 40.0631 7.39273L41.7457 7.83168ZM42.5901 7.53708C43.3614 7.29351 44.1701 7.17047 45.0188 7.17047V5.43134C43.9988 5.43134 43.0136 5.5796 42.0666 5.87864L42.5901 7.53708ZM45.0188 7.17047C45.604 7.17047 45.9631 7.3296 46.2014 7.55951L47.4092 6.30838C46.7727 5.69421 45.9405 5.43134 45.0188 5.43134V7.17047ZM46.2127 7.57038C46.4144 7.75855 46.5588 8.05212 46.5249 8.59908L48.2605 8.70534C48.3179 7.77516 48.0701 6.92325 47.3979 6.29751L46.2127 7.57038ZM48.1066 9.14847C48.6718 8.33508 49.2223 7.85064 49.7353 7.60534L48.9849 6.03647C48.111 6.45438 47.3492 7.19081 46.6788 8.15595L48.1066 9.14847ZM49.7483 7.59864C50.3153 7.31542 50.9353 7.17047 51.6205 7.17047V5.43134C50.6788 5.43134 49.791 5.63308 48.971 6.04316L49.7483 7.59864ZM51.6205 7.17047C52.351 7.17047 52.8536 7.38481 53.2214 7.75238L54.451 6.52255C53.7031 5.77473 52.7292 5.43134 51.6205 5.43134V7.17047ZM53.2301 7.76047C53.6144 8.13525 53.8257 8.62421 53.8257 9.30786H55.5649C55.5649 8.21299 55.204 7.25499 54.4431 6.51438L53.2301 7.76047ZM53.8257 9.30786C53.8257 9.67977 53.7666 10.0467 53.6449 10.412L55.2944 10.9619C55.4744 10.4229 55.5649 9.87047 55.5649 9.30786H53.8257ZM53.6388 10.4298L52.2597 14.8837L53.9214 15.3981L55.3005 10.9442L53.6388 10.4298ZM63.5997 9.1496L62.7744 8.87464L62.771 8.88421L62.7683 8.89386L63.5997 9.1496ZM61.5196 15.9096L60.6883 15.6539L60.6814 15.6761L60.6753 15.6987L61.5196 15.9096ZM61.5649 16.8592L60.8275 17.32L60.8414 17.3427L60.857 17.3646L61.5649 16.8592ZM61.8814 17.1757L62.4962 16.5608L62.4579 16.5226L62.4153 16.4893L61.8814 17.1757ZM62.1075 17.447L61.3614 17.8944L61.3849 17.9328L61.4118 17.9687L62.1075 17.447ZM62.1301 17.6957L62.9414 18.0079L62.9553 17.9718L62.9657 17.9346L62.1301 17.6957ZM54.624 18.08L54.1023 18.7757L54.1214 18.7902L54.1414 18.8036L54.624 18.08ZM54.4431 17.56L53.6179 17.2851L53.6118 17.303L53.6066 17.3212L54.4431 17.56ZM54.9179 17.0853L55.324 17.8538L55.3266 17.8526L54.9179 17.0853ZM55.8675 15.8644L55.0344 15.6137L55.0327 15.6209L55.8675 15.8644ZM57.8344 9.33047L57.0092 9.05551L57.0049 9.0676L57.0014 9.07977L57.8344 9.33047ZM57.7892 8.60699L57.0814 9.11238L57.1005 9.13881L57.1205 9.16368L57.7892 8.60699ZM57.4501 8.29047L56.9066 8.96951L56.9283 8.9869L56.951 9.00282L57.4501 8.29047ZM57.111 7.61221L57.9431 7.86203L57.9483 7.84699L57.9518 7.83168L57.111 7.61221ZM58.5353 6.70786L58.7831 7.54116L58.7901 7.53916L58.797 7.53708L58.5353 6.70786ZM64.2101 1.89221L63.5944 2.50708L63.6005 2.51311L63.6066 2.51901L64.2101 1.89221ZM64.4814 4.44699L63.7223 4.02212L63.7162 4.03386L63.7092 4.04577L64.4814 4.44699ZM63.6223 5.37395L64.0831 6.11134L64.091 6.10638L63.6223 5.37395ZM60.9544 5.14786L60.3275 5.75055L60.3388 5.76281L60.351 5.77464L60.9544 5.14786ZM60.3666 3.7009H59.497V3.71238V3.72377L60.3666 3.7009ZM60.6605 2.59308L61.4249 3.00723L61.4283 3.00077L61.4318 2.99425L60.6605 2.59308ZM61.2257 7.17047C62.0223 7.17047 62.4197 7.32742 62.5979 7.47238L63.6962 6.12421C63.0605 5.60595 62.177 5.43134 61.2257 5.43134V7.17047ZM62.5979 7.47238C62.7823 7.62247 62.8883 7.81638 62.8883 8.15481H64.6275C64.6275 7.34777 64.3257 6.63734 63.6962 6.12421L62.5979 7.47238ZM62.8883 8.15481C62.8883 8.41168 62.8492 8.65021 62.7744 8.87464L64.424 9.42455C64.5605 9.01594 64.6275 8.59125 64.6275 8.15481H62.8883ZM62.7683 8.89386L60.6883 15.6539L62.3501 16.1653L64.4301 9.40534L62.7683 8.89386ZM60.6753 15.6987C60.6188 15.9248 60.5823 16.1567 60.5823 16.3844H62.3214C62.3214 16.3407 62.3292 16.2561 62.3631 16.1205L60.6753 15.6987ZM60.5823 16.3844C60.5823 16.684 60.6388 17.0184 60.8275 17.32L62.3023 16.3983C62.3205 16.4286 62.3257 16.449 62.3257 16.4486C62.3257 16.4483 62.324 16.4432 62.3231 16.4323C62.3223 16.4214 62.3214 16.4057 62.3214 16.3844H60.5823ZM60.857 17.3646C60.9944 17.5566 61.1657 17.7206 61.3475 17.8621L62.4153 16.4893C62.3257 16.4197 62.2857 16.3727 62.2718 16.3538L60.857 17.3646ZM61.2657 17.7906C61.3049 17.8293 61.3318 17.8588 61.3483 17.8793C61.3666 17.9009 61.3683 17.9054 61.3614 17.8944L62.8527 16.9996C62.7544 16.8355 62.6223 16.6869 62.4962 16.5608L61.2657 17.7906ZM61.4118 17.9687C61.2283 17.7252 61.2849 17.4879 61.2936 17.4568L62.9657 17.9346C63.0353 17.6924 63.0762 17.2894 62.8031 16.9253L61.4118 17.9687ZM61.3179 17.3835C61.3214 17.3746 61.3275 17.3629 61.3353 17.3504C61.344 17.3379 61.3527 17.3275 61.3614 17.3196C61.3779 17.3034 61.3823 17.3067 61.3544 17.3179L62.0005 18.9326C62.4118 18.768 62.7649 18.4664 62.9414 18.0079L61.3179 17.3835ZM61.3544 17.3179C61.2875 17.3449 61.077 17.3913 60.6379 17.3913V19.1305C61.1327 19.1305 61.6162 19.0865 62.0005 18.9326L61.3544 17.3179ZM60.6379 17.3913H55.4831V19.1305H60.6379V17.3913ZM55.4831 17.3913C55.3284 17.3913 55.2214 17.3792 55.1536 17.3648C55.0831 17.35 55.0788 17.3382 55.1057 17.3565L54.1414 18.8036C54.5397 19.0691 55.0388 19.1305 55.4831 19.1305V17.3913ZM55.1457 17.3844C55.1614 17.3961 55.2257 17.4514 55.264 17.5626C55.3031 17.676 55.2883 17.7667 55.2788 17.7989L53.6066 17.3212C53.537 17.5644 53.5214 17.8472 53.6214 18.1339C53.7205 18.4185 53.9057 18.6283 54.1023 18.7757L55.1457 17.3844ZM55.2675 17.835C55.2588 17.8627 55.2475 17.8845 55.237 17.8997C55.2275 17.9145 55.2214 17.9212 55.2214 17.9206C55.2223 17.9199 55.2292 17.9127 55.2466 17.9006C55.264 17.8884 55.2892 17.8725 55.324 17.8538L54.511 16.3167C54.157 16.5039 53.7779 16.8044 53.6179 17.2851L55.2675 17.835ZM55.3266 17.8526C55.6283 17.6917 55.8997 17.4899 56.1266 17.2406L54.8397 16.0707C54.7649 16.1531 54.6588 16.2377 54.5083 16.3179L55.3266 17.8526ZM56.1266 17.2406C56.4066 16.9319 56.5814 16.521 56.7023 16.1079L55.0327 15.6209C54.9423 15.9313 54.8605 16.0478 54.8397 16.0707L56.1266 17.2406ZM56.6997 16.1151L58.6666 9.58116L57.0014 9.07977L55.0344 15.6137L56.6997 16.1151ZM58.6588 9.60542C58.7188 9.42638 58.7718 9.21334 58.7718 8.99134H57.0327C57.0327 8.96621 57.0353 8.95855 57.0327 8.97342C57.0292 8.98734 57.0231 9.01412 57.0092 9.05551L58.6588 9.60542ZM58.7718 8.99134C58.7718 8.70412 58.7066 8.35012 58.457 8.05029L57.1205 9.16368C57.0214 9.04473 57.0327 8.94699 57.0327 8.99134H58.7718ZM58.4962 8.1016C58.3449 7.88977 58.1492 7.71847 57.9483 7.57812L56.951 9.00282C56.9988 9.03655 57.0327 9.06403 57.0544 9.08447C57.0762 9.10499 57.0831 9.11473 57.0814 9.11238L58.4962 8.1016ZM57.9927 7.61142C57.9362 7.56577 57.897 7.53064 57.8727 7.50603C57.8466 7.47995 57.8457 7.47525 57.857 7.4916L56.4101 8.45629C56.544 8.6576 56.731 8.82925 56.9066 8.96951L57.9927 7.61142ZM57.857 7.4916C57.9205 7.58768 57.9457 7.68629 57.9501 7.76142C57.9544 7.8296 57.9423 7.86716 57.9431 7.86203L56.2779 7.36238C56.1927 7.64638 56.1501 8.06716 56.4101 8.45629L57.857 7.4916ZM57.9518 7.83168C57.917 7.96438 57.8475 7.95751 58.0005 7.86021C58.1423 7.77003 58.391 7.65821 58.7831 7.54116L58.2866 5.87455C57.8196 6.01368 57.4014 6.18073 57.0683 6.39203C56.7466 6.59612 56.3944 6.91334 56.2692 7.39273L57.9518 7.83168ZM58.797 7.53708C59.5683 7.29351 60.3762 7.17047 61.2257 7.17047V5.43134C60.2057 5.43134 59.2197 5.5796 58.2727 5.87864L58.797 7.53708ZM62.7405 2.17394C63.1127 2.17394 63.377 2.28893 63.5944 2.50708L64.8249 1.27733C64.2588 0.71171 63.5431 0.434814 62.7405 0.434814V2.17394ZM63.6066 2.51901C63.8231 2.72718 63.9284 2.96592 63.9284 3.29395H65.6675C65.6675 2.50661 65.3797 1.81086 64.8127 1.2654L63.6066 2.51901ZM63.9284 3.29395C63.9284 3.52221 63.8684 3.76151 63.7223 4.02212L65.2397 4.87186C65.5162 4.37881 65.6675 3.84942 65.6675 3.29395H63.9284ZM63.7092 4.04577C63.5875 4.28029 63.4092 4.47786 63.1536 4.64151L64.091 6.10638C64.5883 5.78768 64.9823 5.36725 65.2527 4.84821L63.7092 4.04577ZM63.1614 4.63655C62.9457 4.77099 62.7005 4.84351 62.4014 4.84351V6.58264C63.0057 6.58264 63.5744 6.42908 64.0831 6.11134L63.1614 4.63655ZM62.4014 4.84351C62.0396 4.84351 61.777 4.73316 61.557 4.52108L60.351 5.77464C60.9144 6.31621 61.617 6.58264 62.4014 6.58264V4.84351ZM61.5805 4.54516C61.3631 4.31855 61.2449 4.04681 61.2353 3.67803L59.497 3.72377C59.517 4.50047 59.7918 5.19342 60.3275 5.75055L61.5805 4.54516ZM61.2362 3.7009C61.2362 3.48177 61.291 3.25375 61.4249 3.00723L59.8953 2.17892C59.637 2.65588 59.497 3.16645 59.497 3.7009H61.2362ZM61.4318 2.99425C61.5579 2.75072 61.7362 2.55146 61.9788 2.38964L61.0144 0.942597C60.5336 1.26309 60.1536 1.68181 59.8883 2.1919L61.4318 2.99425ZM61.9788 2.38964C62.1875 2.2509 62.431 2.17394 62.7405 2.17394V0.434814C62.1144 0.434814 61.5301 0.599015 61.0144 0.942597L61.9788 2.38964ZM74.1849 6.59481L73.8683 7.40455L73.8762 7.4076L73.8831 7.41047L74.1849 6.59481ZM75.7901 7.68003L75.1136 8.22594L75.1231 8.23786L75.1327 8.24951L75.7901 7.68003ZM75.7449 10.687L75.1536 10.0498L75.1475 10.0552L75.1414 10.0606L75.7449 10.687ZM72.3762 10.7322L71.7857 11.3703L71.7918 11.3763L71.7988 11.3821L72.3762 10.7322ZM71.9014 8.26786L72.7405 8.49664L73.1362 7.0456L71.6814 7.42664L71.9014 8.26786ZM69.2336 11.1844L68.3823 11.0077L68.3805 11.0139L69.2336 11.1844ZM72.964 14.7566L73.184 15.5979L73.2005 15.5935L73.217 15.5885L72.964 14.7566ZM74.0266 14.3496L74.3892 15.1401L74.4023 15.1339L74.4153 15.1273L74.0266 14.3496ZM74.8631 14.1913L74.1396 14.6737L74.1875 14.7453L74.2483 14.8062L74.8631 14.1913ZM74.9083 14.4174H74.0388V14.4292V14.4409L74.9083 14.4174ZM74.2075 16.1809L73.5223 15.6459L73.5205 15.6482L74.2075 16.1809ZM72.2405 17.7183L72.624 18.4989L72.6292 18.496L72.2405 17.7183ZM66.5431 17.7409L66.1597 18.5215L66.1683 18.5256L66.177 18.5296L66.5431 17.7409ZM64.5988 16.0226L63.8536 16.47L63.8588 16.4788L63.864 16.4875L64.5988 16.0226ZM64.1014 11.84L63.2518 11.655L63.251 11.6609L64.1014 11.84ZM66.7918 7.61221L66.304 6.89229L66.3005 6.89473L66.7918 7.61221ZM71.7657 7.05742C72.6014 7.05742 73.2962 7.1809 73.8683 7.40455L74.5014 5.78508C73.6866 5.46612 72.7692 5.31829 71.7657 5.31829V7.05742ZM73.8831 7.41047C74.4631 7.62481 74.8553 7.90621 75.1136 8.22594L76.4666 7.13412C75.971 6.51942 75.2927 6.07725 74.4866 5.77916L73.8831 7.41047ZM75.1327 8.24951C75.3988 8.55612 75.5084 8.86229 75.5084 9.19481H77.2475C77.2475 8.41194 76.9657 7.70829 76.4475 7.11055L75.1327 8.24951ZM75.5084 9.19481C75.5084 9.56864 75.3892 9.8309 75.1536 10.0498L76.337 11.3242C76.9449 10.7592 77.2475 10.0267 77.2475 9.19481H75.5084ZM75.1414 10.0606C74.9353 10.2593 74.6153 10.4052 74.0718 10.4052V12.1444C74.9457 12.1444 75.7405 11.8984 76.3483 11.3133L75.1414 10.0606ZM74.0718 10.4052C73.4901 10.4052 73.1553 10.2615 72.9536 10.0823L71.7988 11.3821C72.411 11.9264 73.2066 12.1444 74.0718 12.1444V10.4052ZM72.9666 10.0941C72.764 9.90586 72.6353 9.64595 72.6353 9.21742H70.8962C70.8962 10.055 71.1744 10.8049 71.7857 11.3703L72.9666 10.0941ZM72.6353 9.21742C72.6353 9.00316 72.6675 8.76395 72.7405 8.49664L71.0623 8.03908C70.9544 8.43499 70.8962 8.82873 70.8962 9.21742H72.6353ZM71.6814 7.42664C70.8875 7.63447 70.1892 8.04968 69.591 8.64777L70.8205 9.87751C71.217 9.48081 71.6492 9.23282 72.1214 9.10908L71.6814 7.42664ZM69.591 8.64777C68.9666 9.27177 68.5753 10.0759 68.3823 11.0077L70.0849 11.3611C70.2231 10.6953 70.4797 10.2181 70.8205 9.87751L69.591 8.64777ZM68.3805 11.0139C68.2823 11.5077 68.2283 11.9732 68.2283 12.4053H69.9675C69.9675 12.1139 70.004 11.7654 70.0866 11.3549L68.3805 11.0139ZM68.2283 12.4053C68.2283 13.3803 68.504 14.2608 69.1831 14.8949L70.3692 13.6234C70.1449 13.4134 69.9675 13.058 69.9675 12.4053H68.2283ZM69.1831 14.8949C69.8475 15.5148 70.7379 15.7618 71.7205 15.7618V14.0226C71.0153 14.0226 70.6101 13.8476 70.3692 13.6234L69.1831 14.8949ZM71.7205 15.7618C72.2536 15.7618 72.7457 15.7123 73.184 15.5979L72.7449 13.9152C72.4892 13.9817 72.1527 14.0226 71.7205 14.0226V15.7618ZM73.217 15.5885C73.6049 15.4706 73.9953 15.3206 74.3892 15.1401L73.664 13.5591C73.3344 13.7102 73.017 13.8315 72.711 13.9246L73.217 15.5885ZM74.4153 15.1273C74.5457 15.0621 74.6388 15.0232 74.7005 15.0021C74.7301 14.9919 74.744 14.9885 74.7457 14.9882C74.7492 14.9875 74.7257 14.9931 74.6823 14.9931V13.2539C74.4736 13.2539 74.2788 13.3077 74.1336 13.3579C73.9753 13.4123 73.8083 13.4864 73.6379 13.5719L74.4153 15.1273ZM74.6823 14.9931C74.6623 14.9931 74.5883 14.9915 74.4901 14.9546C74.3823 14.9141 74.2431 14.8293 74.1396 14.6737L75.5866 13.709C75.311 13.2952 74.8683 13.2539 74.6823 13.2539V14.9931ZM74.2483 14.8062C74.1553 14.7136 74.1075 14.6204 74.084 14.565C74.0597 14.5079 74.0483 14.4627 74.044 14.441C74.0362 14.4003 74.0388 14.386 74.0388 14.4174H75.7779C75.7779 14.3282 75.7727 14.216 75.7501 14.0999C75.7318 14.0112 75.6779 13.7764 75.4779 13.5765L74.2483 14.8062ZM74.0388 14.4409C74.0466 14.7286 73.9301 15.1235 73.5223 15.6459L74.8927 16.7159C75.4501 16.0024 75.7997 15.2216 75.7779 14.3939L74.0388 14.4409ZM73.5205 15.6482C73.1492 16.1266 72.6066 16.5632 71.8518 16.9406L72.6292 18.496C73.5631 18.0292 74.331 17.441 74.8944 16.7136L73.5205 15.6482ZM71.857 16.9377C71.1623 17.2791 70.3614 17.4592 69.437 17.4592V19.1983C70.5927 19.1983 71.6614 18.9714 72.624 18.4989L71.857 16.9377ZM69.437 17.4592C68.4579 17.4592 67.6214 17.2826 66.9092 16.9522L66.177 18.5296C67.1536 18.9829 68.2466 19.1983 69.437 19.1983V17.4592ZM66.9266 16.9603C66.2327 16.6199 65.7101 16.1528 65.3336 15.5578L63.864 16.4875C64.4223 17.3696 65.1953 18.0479 66.1597 18.5215L66.9266 16.9603ZM65.3449 15.5753C64.984 14.9739 64.7901 14.2585 64.7901 13.4H63.051C63.051 14.5312 63.3101 15.5641 63.8536 16.47L65.3449 15.5753ZM64.7901 13.4C64.7901 13.0059 64.8414 12.5471 64.9527 12.0192L63.251 11.6609C63.1205 12.2785 63.051 12.8598 63.051 13.4H64.7901ZM64.951 12.0251C65.3179 10.3405 66.1049 9.13647 67.2831 8.32968L66.3005 6.89473C64.7057 7.98708 63.6988 9.6016 63.2518 11.655L64.951 12.0251ZM67.2796 8.33212C68.5188 7.49247 70.0023 7.05742 71.7657 7.05742V5.31829C69.7014 5.31829 67.8683 5.83281 66.304 6.89229L67.2796 8.33212Z" fill="#9374FF"/>
</g>
</g>
<defs>
<filter id="filter0_d_4507_8537" x="1.25415" y="0.434814" width="78.9934" height="19.8992" filterUnits="userSpaceOnUse" color-interpolation-filters="sRGB">
<feFlood flood-opacity="0" result="BackgroundImageFix"/>
<feColorMatrix in="SourceAlpha" type="matrix" values="0 0 0 0 0 0 0 0 0 0 0 0 0 0 0 0 0 0 127 0" result="hardAlpha"/>
<feOffset dx="3" dy="1"/>
<feComposite in2="hardAlpha" operator="out"/>
<feColorMatrix type="matrix" values="0 0 0 0 0.576301 0 0 0 0 0.453825 0 0 0 0 1 0 0 0 1 0"/>
<feBlend mode="normal" in2="BackgroundImageFix" result="effect1_dropShadow_4507_8537"/>
<feBlend mode="normal" in="SourceGraphic" in2="effect1_dropShadow_4507_8537" result="shape"/>
</filter>
</defs>
</svg>
