<svg width="24" height="24" viewBox="0 0 24 24" fill="none" xmlns="http://www.w3.org/2000/svg">
<g clip-path="url(#clip0_2897_36535)">
<path d="M14.828 7.75689L9.17201 13.4139C9.0765 13.5061 9.00032 13.6165 8.94791 13.7385C8.8955 13.8605 8.86792 13.9917 8.86676 14.1245C8.86561 14.2573 8.89091 14.3889 8.94119 14.5118C8.99147 14.6347 9.06572 14.7464 9.15962 14.8403C9.25351 14.9342 9.36516 15.0084 9.48806 15.0587C9.61095 15.109 9.74263 15.1343 9.87541 15.1331C10.0082 15.132 10.1394 15.1044 10.2614 15.052C10.3834 14.9996 10.4938 14.9234 10.586 14.8279L16.243 9.17189C16.8057 8.60923 17.1218 7.8461 17.1218 7.05039C17.1218 6.25467 16.8057 5.49154 16.243 4.92889C15.6804 4.36623 14.9172 4.05013 14.1215 4.05013C13.3258 4.05013 12.5627 4.36623 12 4.92889L6.34301 10.5859C5.86909 11.048 5.49164 11.5996 5.23257 12.2088C4.9735 12.8179 4.83796 13.4724 4.83381 14.1344C4.82966 14.7963 4.95699 15.4525 5.20841 16.0648C5.45983 16.6771 5.83033 17.2334 6.29843 17.7015C6.76652 18.1695 7.3229 18.5399 7.93527 18.7913C8.54764 19.0426 9.20382 19.1698 9.86575 19.1656C10.5277 19.1614 11.1822 19.0257 11.7913 18.7666C12.4004 18.5074 12.952 18.1299 13.414 17.6559L19.071 11.9999L20.485 13.4139L14.828 19.0709C14.178 19.7209 13.4063 20.2366 12.5569 20.5884C11.7076 20.9402 10.7973 21.1212 9.87801 21.1212C8.95871 21.1212 8.04841 20.9402 7.19909 20.5884C6.34977 20.2366 5.57806 19.7209 4.92801 19.0709C4.27797 18.4208 3.76233 17.6491 3.41053 16.7998C3.05872 15.9505 2.87766 15.0402 2.87766 14.1209C2.87766 13.2016 3.05872 12.2913 3.41053 11.442C3.76233 10.5926 4.27797 9.82093 4.92801 9.17089L10.586 3.51489C11.529 2.6041 12.792 2.10013 14.103 2.11152C15.414 2.12291 16.6681 2.64875 17.5951 3.57579C18.5221 4.50284 19.048 5.7569 19.0594 7.06788C19.0708 8.37887 18.5668 9.64188 17.656 10.5849L12 16.2439C11.7213 16.5225 11.3905 16.7435 11.0265 16.8942C10.6624 17.045 10.2722 17.1225 9.87816 17.1225C9.48411 17.1224 9.09394 17.0448 8.7299 16.894C8.36587 16.7431 8.03511 16.5221 7.75651 16.2434C7.47791 15.9647 7.25693 15.6339 7.10618 15.2698C6.95542 14.9058 6.87786 14.5156 6.8779 14.1215C6.87795 13.7275 6.95561 13.3373 7.10645 12.9733C7.25728 12.6092 7.47835 12.2785 7.75701 11.9999L13.414 6.34289L14.828 7.75689Z" fill="#878A93"/>
</g>
<defs>
<clipPath id="clip0_2897_36535">
<rect width="24" height="24" fill="white"/>
</clipPath>
</defs>
</svg>
