<svg width="24" height="24" viewBox="0 0 24 24" fill="none" xmlns="http://www.w3.org/2000/svg">
<mask id="mask0_45_508" style="mask-type:alpha" maskUnits="userSpaceOnUse" x="0" y="0" width="24" height="24">
<rect width="24" height="24" fill="#D9D9D9"/>
</mask>
<g mask="url(#mask0_45_508)">
<path d="M5 21V5C5 4.45 5.19583 3.97917 5.5875 3.5875C5.97917 3.19583 6.45 3 7 3H14C13.6667 3.5 13.4167 3.97917 13.25 4.4375C13.0833 4.89583 13 5.41667 13 6C13 7.2 13.3792 8.25833 14.1375 9.175C14.8958 10.0917 15.85 10.6667 17 10.9C17.3833 10.95 17.7167 10.975 18 10.975C18.2833 10.975 18.6167 10.95 19 10.9V21L12 18L5 21ZM17 9V7H15V5H17V3H19V5H21V7H19V9H17Z" fill="#B7B7B7"/>
</g>
</svg>
