<svg width="25" height="24" viewBox="0 0 25 24" fill="none" xmlns="http://www.w3.org/2000/svg">
<path d="M9.95 16L12.75 13.9L15.5 16L14.45 12.6L17.25 10.4H13.85L12.75 7L11.65 10.4H8.25L11 12.6L9.95 16ZM4.75 20C4.2 20 3.72933 19.8043 3.338 19.413C2.94667 19.0217 2.75067 18.5507 2.75 18V14.625C2.75 14.4417 2.80833 14.2833 2.925 14.15C3.04167 14.0167 3.19167 13.9333 3.375 13.9C3.775 13.7667 4.10433 13.525 4.363 13.175C4.62167 12.825 4.75067 12.4333 4.75 12C4.74933 11.5667 4.62033 11.175 4.363 10.825C4.10567 10.475 3.77633 10.2333 3.375 10.1C3.19167 10.0667 3.04167 9.98333 2.925 9.85C2.80833 9.71667 2.75 9.55833 2.75 9.375V6C2.75 5.45 2.946 4.97933 3.338 4.588C3.73 4.19667 4.20067 4.00067 4.75 4H20.75C21.3 4 21.771 4.196 22.163 4.588C22.555 4.98 22.7507 5.45067 22.75 6V9.375C22.75 9.55833 22.6917 9.71667 22.575 9.85C22.4583 9.98333 22.3083 10.0667 22.125 10.1C21.725 10.2333 21.396 10.475 21.138 10.825C20.88 11.175 20.7507 11.5667 20.75 12C20.7493 12.4333 20.8787 12.825 21.138 13.175C21.3973 13.525 21.7263 13.7667 22.125 13.9C22.3083 13.9333 22.4583 14.0167 22.575 14.15C22.6917 14.2833 22.75 14.4417 22.75 14.625V18C22.75 18.55 22.5543 19.021 22.163 19.413C21.7717 19.805 21.3007 20.0007 20.75 20H4.75Z" fill="#9374FF"/>
</svg>
