<?xml version="1.0" encoding="UTF-8"?>
<svg id="_레이어_4" data-name="레이어 4" xmlns="http://www.w3.org/2000/svg" viewBox="0 0 1000 220">
  <defs>
    <style>
      .cls-1 {
        fill: #fff;
      }

      .cls-2 {
        fill: #9374ff;
      }
    </style>
  </defs>
  <g>
    <path class="cls-1" d="M101.758935497,208.9483894062c-54.5603174618,0-98.9483894062-44.3880719444-98.9483894062-98.9483894062S47.1986180352,11.0516105938,101.758935497,11.0516105938h796.482129006c54.5603174618,0,98.9483894062,44.3880719444,98.9483894062,98.9483894062s-44.3880719444,98.9483894062-98.9483894062,98.9483894062H101.758935497Z"/>
    <rect class="cls-2" x="23.4250020214" y="31.6658583858" width="327.0793983178" height="156.6682832284" rx="78.3340632816" ry="78.3340632816"/>
    <g>
      <path class="cls-1" d="M258.7617088084,80.8968732249c4.8163793871,0,9.0407674173.7034074329,12.6725246151,2.1105545753,3.6320832049,1.3289148319,6.4352054757,3.2047787453,8.4090157276,5.6279240166,2.0530299879,2.3449129608,3.0792252441,4.9636311715,3.0792252441,7.8558223556,0,3.1268787114-1.1054024534,5.7061531923-3.315881353,7.7388014644-2.1319237167,2.0323285343-5.0533615031,3.0483235284-8.7643384369,3.0483235284-3.7898581238,0-6.7507427746-.9380980949-8.8826664913-2.8139620083-2.1319237167-1.9540930891-3.1978793056-4.5728081651-3.1978793056-7.8558192209,0-1.5632794868.2369946548-3.20478188.7106454185-4.9245165836-3.3162073601.8598657845-6.2771045497,2.5796036228-8.8826664913,5.1588718344-2.5266807516,2.5013775817-4.2240620231,5.823496956-5.0928083675,9.9663769309-.4736507637,2.3452452373-.7106454185,4.455796678-.7106454185,6.3316605913,0,4.2211091507,1.1842961822,7.4258910307,3.5532020149,9.6146716471,2.3685798256,2.1887806164,5.7636809145,3.2830110557,10.1852907279,3.2830110557,2.5266807516,0,4.6980387939-.2343615202,6.5140866657-.7034105676,1.8160353331-.5472782232,3.6715175306-1.2506825215,5.5664465925-2.1105514407,1.5790532171-.7816397434,2.724228542-1.1724596151,3.4345479533-1.1724596151.4739767708,0,.7898526157.1170177565.9476275345.3517052838.1577749188.1561323444.236982116.5469522161.236982116,1.1724596151.0788937288,2.892191184-1.144836779,5.9408407196-3.6715175306,9.1456225996-2.4477995615,3.1265464348-5.8823349761,5.7843823681-10.3039447895,7.9731629845-4.3427286234,2.1105514407-9.2379892006,3.1656672921-14.6861202773,3.1656672921-5.6847871857,0-10.7381486888-1.0163272707-15.1597585023-3.0486495356-4.3427286234-2.11055771-7.7378171736-5.0806457933-10.1852907279-8.9109350723-2.3689058327-3.9085184548-3.5531894761-8.442212032-3.5531894761-13.6010932705,0-2.4234681437.3158758448-5.1200863884.9472889886-8.0905067482,2.1319237167-9.6929008228,6.8299625106-17.0014418205,14.0941414592-21.9259584041,7.3427215928-4.9245165836,16.0281663009-7.3867733081,26.05568211-7.3867733081Z"/>
      <path class="cls-1" d="M206.2381461714,81.4826077524c4.5793847323,0,7.9350389568.8598689192,10.0669626735,2.5796036228,2.1319111779,1.7197347036,3.1978793056,4.0646476645,3.1978793056,7.0350680243,0,1.7979638794-.2764415192,3.5173725759-.8292994801,5.1588749691l-10.8959236077,35.0583254996c-.2369946548.9380980949-.3553227092,1.7588524262-.3553227092,2.4622629938,0,1.0159949942.1972092445,1.8370753326.5923048253,2.4622567245.3947695736.5472782232.9473015274,1.09422417,1.6579469458,1.6415023932.5528579609.5472782232.9476275345,1.0163272707,1.1842836434,1.4071471424.2369946548.3125906959.2764289804.7425188861.1186666003,1.2897971094-.3950955808,1.0160012636-1.1846221893,1.7585201497-2.3689183715,2.2275691972-1.1842836434.4690490475-3.0003315153.7034105676-5.448118538.7034105676h-27.0033221832c-2.0527039807,0-3.5528697384-.3125906959-4.5004972729-.9377658184-.9473015274-.7037365748-1.2631773722-1.6023940747-.9473015274-2.6969505211.3155498377-.9377658184,1.1448493178-1.7588461568,2.48690788-2.4622567245,1.1846221893-.6251751225,2.1713643117-1.3680262851,2.9608909202-2.2275691972.7895266085-.8598689192,1.4607251626-2.2278952043,2.0135893929-4.1040913942l10.3039447895-33.8855398773c.2366623783-.7034105676.3553164399-1.2898033787.3553164399-1.7588524262,0-.8598626498-.197541521-1.5241586295-.5923048253-1.993207677-.3947633043-.5469490814-.9870743989-1.0942273046-1.7766010074-1.6415055279-.7895266085-.6251782572-1.3420648316-1.1724564804-1.6579406765-1.6415055279-.3158758448-.4690459128-.3553164399-1.0942273046-.118660331-1.8758639134.4739830402-1.7979638794,2.9608909202-3.3612402315,7.4617142003-4.6901550635,4.5005035423-1.4071440077,9.198216329-2.1105545753,14.0938029133-2.1105545753Z"/>
      <path class="cls-1" d="M157.8347872047,81.0138878467c6.0795504899,0,10.8564830126,1.9932108117,14.3307912987,5.9799584422,3.4739822789,3.9864184887,5.2111426914,9.4190987077,5.2111426914,16.2980312529,0,3.6738309274-.5134236352,7.5429087872-1.539612622,11.6078855935-2.3689058327,9.6925685463-6.7905219156,17.0793387197-13.2648357098,22.1603167896-6.4746398014,5.0027426247-13.9754685895,7.5041139371-22.502818641,7.5041139371-5.4481248074,0-10.1856136004-1.1333387578-14.2124601096-3.4003548194l-3.7898581238,12.5459836884c-.3158758448.8598689192-.4736507637,1.6806169811-.4736507637,2.4622567245,0,.8598689192.1972155139,1.5632669481.59230796,2.1105451713.3947633043.6251813919.9078577977,1.2115804723,1.5396094873,1.7588586956.6314256825.6251688531,1.0261889868,1.1333387578,1.1842899128,1.5241586295.2369915201.3908198717.2764321151.8598689192.1183311891,1.4071471424-.3158758448,1.0159887248-1.0659587237,1.7193992924-2.2502486364,2.1105451713-1.1842899128.4687230403-3.0003315153.7034105676-5.4479962854.7034105676h-27.1217791515c-2.0529002903,0-3.5135964571-.3516990144-4.3821248431-1.0554355892-.947486339-.6251813919-1.2238367197-1.4459294538-.8290514482-2.4622567245.1579144858-.6251813919.4342651726-1.1333512966.8290514482-1.5241711683.3947862266-.390807333.9474844166-.7425188861,1.6581008392-1.0551095821,1.18434908-.7819657505,2.1318465251-1.6027138125,2.8424531518-2.4625827316.7106066268-.7816397434,1.3422603576-2.0714368528,1.8949623679-3.8690778597l17.2916156069-56.1635327071c.2368912102-.7034042983.3553195746-1.2897971094.3553195746-1.7588461568,0-.859542912-.1973816521-1.5241648989-.5921778706-1.9932108117-.3947962184-.5469490814-.986974089-1.0942273046-1.7765336117-1.6415055279-.7895908696-.6251782572-1.3422936636-1.1724564804-1.65810368-1.6415055279-.3158429307-.4690490475-.3553195746-1.0942273046-.1184283643-1.8758639134.4737479389-1.7979638794,2.9608877855-3.3612402315,7.4614524541-4.6901550635,4.5005317544-1.4071471424,9.1984765078-2.1105545753,14.093737085-2.1105545753,3.4743114208,0,6.31654201.8598689192,8.5273469168,2.5796036228,2.2900183733,1.7197347036,3.5926426099,4.1037622523,3.9085184548,7.1524117879,5.3689113408-6.8007096388,11.4093472429-10.2010644582,18.1206494225-10.2010644582ZM144.0963070006,115.8375289537c1.8949290619-6.9568419832,2.8425565964-11.7640116685,2.8425565964-14.4218413324,0-1.6415086626-.2764352498-2.6966182446-.8292994801-3.1656672921-.4736507637-.5472782232-1.1842899128-.8207543313-2.1319174473-.8207543313-.710313142,0-1.6185000814.3517052838-2.7239025348,1.0551158514-1.1054024534.625507399-2.2108049067,1.719731569-3.3162073601,3.2830110557l-9.3563141203,30.7198725852c.9472983927.9380980949,2.0921445758,1.4071471424,3.4345385492,1.4071471424,2.1319174473,0,4.1451776983-1.1724533457,6.0401036255-3.517698583,1.9741487978-2.4231421366,3.9874059142-7.2694264098,6.0404421714-14.539185096Z"/>
      <path class="cls-1" d="M202.10743504,50.2329735585c1.0909452904-3.5608561297,1.6362423933-5.3412681293,2.4037509809-5.863630708.9072026487-.61761544,2.1049654336-.61761544,3.0121680823,0,.7671700417.5223625787,1.3128056905,2.3027745783,2.403412435,5.863630708.2747989447.897108966.4121858784,1.3456462082.6537822494,1.6880814475.3477618512.4937331172.8562452244.8544106505,1.4403371774,1.0218811472.4049510275.1161941183.8723575005.1009752271,1.8068444394.0706040568l.3904938646-.0126876338c3.3664876927-.1094232007,5.0500763542-.1641508663,5.7222529297.2359374826,1.1593064807.6897018105,1.6106132163,2.1310640296,1.0485392843,3.3488809559-.3260698375.7064324031-1.7453670153,1.6038360293-4.5843124557,3.3986119351-.7638974315.4830830281-1.1461658851.7246088687-1.4064951281,1.0302625088-.4434073317.5200299819-.6659322848,1.1898116588-.6209056828,1.8687983354.02629373.3990029645.1903129395.8211806483.5180253514,1.6654999671,1.2240690537,3.1531755761,1.8364233183,4.7297617967,1.6461103788,5.5219184052-.2928672637,1.220940639-1.4156860218,2.0672645883-2.6824870888,2.0217082246-.8217386221-.0295506668-2.1818780421-1.0244774493-4.901830875-3.0143686305l-.5130976281-.3754348423c-.8102280622-.5928690684-1.2155176355-.8892847945-1.653658698-1.0211923004-.5038941956-.1516904971-1.0422949936-.1516904971-1.5461891892,0-.4384796084.1319075059-.8434306359.4283577135-1.6539972439,1.0211923004l-.5130976281.3754348423c-2.7199528329,1.9898911813-4.0797662458,2.9848179638-4.9015048678,3.0143686305-1.2667885283.0455563637-2.3899458322-.8007675856-2.682813096-2.0217082246-.1899869324-.7921566085.4220538638-2.3687428292,1.6464363859-5.5219184052.3277124119-.8443193188.4914056143-1.2664970026.5180253514-1.6654999671.0447005949-.6789866767-.1778243582-1.3487683535-.6209056828-1.8687983354-.2606552502-.3056536401-.6425976966-.5471794807-1.4068085965-1.0302625088-2.8386194332-1.7947759057-4.258255157-2.692179532-4.5843249944-3.3986119351-.5617353862-1.2178169263-.1104411893-2.6591791454,1.0485392843-3.3488809559.6725151214-.4000883488,2.3557652371-.3453606832,5.7222654685-.2359374826l.3904813258.0126876338c.9344869389.0303711703,1.4018934119.0455900615,1.8071704465-.0706040568.584091953-.1674704967,1.0922618577-.52814803,1.4403497161-1.0218811472.2412578251-.3424352393.3786572975-.7909724816.6534437035-1.6880814475Z"/>
    </g>
    <g>
      <path class="cls-2" d="M468.2679993486,91.6617655006c-.3586999991-12.6441749693-10.4919749746-21.7013499474-23.6741999426-21.7013499474-21.432324948,0-36.4977249115,20.9839499491-36.4977249115,50.3070689658,0,18.2936999556,9.3261999774,29.5030749285,24.5709499404,29.5030749285,12.9043698043,0,23.4289387914-7.3773825332,28.2162792635-19.4462152758.5609775316-1.4142181951,1.9259592461-2.3448077723,3.4473759853-2.344807801l24.8088135319-.0000004684c2.4468864457-.0000000462,4.2047949644,2.3154774799,3.6016127889,4.6868535659-6.7940838622,26.7105505659-31.0966873933,44.2756949133-62.1366065646,44.2756949133-34.1661749171,0-56.3158998634-21.5219999478-56.3158998634-54.7914248671,0-47.4374689728,29.0546999295-79.092743896,73.4438248219-79.092743896,30.4894999261,0,52.4598748728,19.369799953,52.9082498717,46.9000248863,0,.5095581133-.0109468806.9972224653-.0301361549,1.4616408127-.082396254,1.9941521251-1.7264600707,3.5601591751-3.7223137329,3.5601591751h-25.234014937c-1.8176444,0-3.3110763252-1.4350290771-3.3835467492-3.2512281858l-.0026633475-.0667468062Z"/>
      <path class="cls-2" d="M528.8533750759,45.299790613h23.0449114911c2.3716517085,0,4.1386331442,2.1880830374,3.639267467,4.506566539l-9.0729548749,42.124433348h.6277249985c6.9049749833-10.2229499752,17.8453249567-16.7692249593,31.744949923-16.7692249593,18.1143499561,0,30.0411249271,11.5680749719,30.0411249271,27.5302249332,0,3.6766749911-.4483749989,7.6223749815-1.3451249967,11.8364940591l-12.1091399501,57.2199500459c-.364173547,1.7208482397-1.8831025972,2.9519748082-3.6420628118,2.9519748082h-22.965714609c-2.3671830495,0-4.1331864336-2.1803229983-3.6415506824-4.4958898573l10.7928681299-50.8335850086c.4483749989-2.6005749937.7173999983-4.7527749885.7173999983-6.8146940713,0-7.8017249811-6.0978999852-13.4512499674-15.0653999635-13.4512499674-9.8642499761,0-18.1143499561,7.3533499822-20.3562249506,18.0240690441l-11.5706172107,54.6201194801c-.364466119,1.7204944734-1.8832304692,2.9512303803-3.6419051932,2.9512303803h-23.1437409823c-2.3678163447,0-4.1339591342-2.1814221235-3.6412289145-4.4974038102l25.9461892905-121.9549701435c.3657168-1.7189800369,1.8837758867-2.9480448204,3.6412289145-2.9480448204Z"/>
      <path class="cls-2" d="M613.0034489976,149.5912094479c0-19.9975249515,16.5898749598-32.2829999217,43.7613998939-33.0900749198l23.0464749441-.7173999983,1.1657749972-5.7385940739c.3586999991-1.5244749963.3586999991-2.3315499943.3586999991-3.2282999922,0-5.6495249863-5.2011499874-9.3261999774-13.5409249672-9.3261999774-7.1515198878,0-12.2611217822,2.7460276463-14.6424578902,7.5518071532-.6071269601,1.2252442204-1.9060620516,1.9537291004-3.273478062,1.9537296881l-20.967140459.0000090106c-2.5135263156.0000010802-4.3366321527-2.4518359942-3.5600640857-4.8423916988,5.4955900867-16.917402081,22.2715879632-27.4406040978,44.6850154915-27.4406040978,24.75029994,0,41.5195248993,11.9267749711,41.5195248993,29.4133999287,0,2.6005749937-.3586999991,5.9185499856-.807074998,7.9810749806l-12.646278236,59.6420051412c-.3647378203,1.7201657713-1.8833491237,2.9505387948-3.6417586205,2.9505387948h-22.3178712444c-2.3740833962,0-4.1415915466-2.1923100703-3.6380125494-4.51237045l1.5314707489-7.0557045219h-.6277249985c-5.2011499874,7.8017249811-15.244749963,13.0028749685-27.5302249332,13.0028749685-16.3208499604,0-28.87534993-11.2093749728-28.87534993-26.5437999356ZM674.4308238487,140.7133844694l1.6141499961-7.2636749824-17.7556499569.5380499987c-9.4158749772.3586999991-15.4240999626,4.6630999887-15.4240999626,11.2093749728,0,5.7391999861,5.2011499874,9.5055499769,12.7338499691,9.5055499769,9.057174978,0,17.1279249585-5.9185499856,18.8317499543-13.9892999661Z"/>
      <path class="cls-2" d="M736.8034423755,77.044740536h22.402687608c2.3492118653,0,4.1111498761,2.149218862,3.6504315245,4.4528106202l-1.8893628692,9.4468143461h.6277249985c4.8424499883-9.057174978,13.5409249672-15.3344249628,24.4812749406-15.3344249628,3.8347086066,0,6.9861633273.4555025906,9.74653919,1.3015799879,1.8292428015.5606776271,2.8901134598,2.4705433846,2.4803341998,4.3393851613l-4.2879033418,19.5554379681c-.4691952815,2.1398148446-2.6869670679,3.451507132-4.7619796121,2.7491719393-3.0259676476-1.0242075774-6.4065576008-1.6708001203-10.2613154187-1.6708001203-12.7338499691,0-21.0736249489,7.0843249828-24.2122499413,21.4317190359l-10.3986241348,48.4423709696c-.3683173374,1.7158197913-1.8849036705,2.9414039057-3.6398097128,2.9414039057h-23.3218389873c-2.3709127992,0-4.1377334147-2.186799181-3.6396470549-4.5048020886l19.3840915566-90.2100202204c.3686133364-1.7154591141,1.8850314948-2.940646542,3.6396470549-2.940646542Z"/>
      <path class="cls-2" d="M806.253073529,154.4336594362c0-2.4212249941.1793499996-6.0978999852,1.0760999974-10.2229499752l8.7881499787-41.9672939861h-9.9022513859c-2.3765523054,0-4.1445912584-2.1966048936-3.6367294484-4.5182588821l3.3931080999-15.5113513137c.3738528362-1.709041537,1.8872755569-2.9271897485,3.6367294484-2.9271897485h11.5309432739l4.3111903795-20.5369432623c.3618381328-1.7236652872,1.8820780584-2.9579066807,3.6433130957-2.9579066807h23.2233136725c2.3692564181,0,4.1357152278,2.1839222302,3.6404950112,4.5008453864l-4.0597872335,18.9940045566h14.941674322c2.370863828,0,4.1376737725,2.1867141033,3.6396721834,4.504685136l-3.3325168838,15.5113513137c-.3685676357,1.7155148137-1.8850117667,2.9407634946-3.6396721834,2.9407634946h-16.4516074265l-8.1604249802,38.4699689945c-.4483749989,1.5244749963-.6277249985,3.6766749911-.6277249985,5.0217999878,0,5.5598499865,3.6766749911,7.8913999809,11.6577499717,7.8913999809.5828874986,0,1.1159555529-.0049819444,1.6054315933-.0149458333,2.4184641401-.0492308222,4.2519148022,2.1624396958,3.7251018491,4.5233421891l-3.1832991077,14.2658960013c-.3366852778,1.5088488374-1.5634449806,2.6541275651-3.0935563413,2.8749012369-2.9670035403.4280971194-7.0154647154.6798813518-10.7114279651.6798813518-19.9078499517,0-32.0139749224-7.2636749824-32.0139749224-21.5219999478Z"/>
    </g>
  </g>
  <path class="cls-2" d="M913.0191731382,52.1084625067c2.3569004441-7.6929461698,3.5349714209-11.539384547,5.193112619-12.6679073103,1.9599390953-1.3343089865,4.547610232-1.3343089865,6.5075493274,0,1.6574097967,1.1285227633,2.8362121749,4.9749611405,5.1923812176,12.6679073103.5936812419,1.9381324974.8904947739,2.9071614989,1.4124444987,3.6469655704.7513117925,1.0666710911,1.8498496371,1.8458861863,3.1117337989,2.2076928612.8748644547.2510281417,1.8846589269.2181489389,3.903543559.1525344435l.8436309051-.0274106227c7.2730286363-.2364001133,10.9102879003-.3546348776,12.3624718762.5097241469,2.5045893531,1.4900458508,3.4796016245,4.6039941707,2.2652856439,7.2349906832-.7044479237,1.5261909641-3.7707264788,3.4649600516-9.9040420793,7.3424305044-1.6503395829,1.0436624214-2.4762001424,1.5654597709-3.0386207458,2.2258001256-.9579462382,1.1234833736-1.438693683,2.5704933617-1.3414172941,4.0373900189.0568055103.862014138.4111559541,1.7740954122,1.1191525291,3.5981800798,2.644503736,6.8121847912,3.967446372,10.2182738007,3.5562904179,11.9296650856-.6327164066,2.6377450451-3.05847694,4.4661605572-5.7952997885,4.3677396605-1.7753008701-.0638418629-4.7137737992-2.2133019652-10.5900153449-6.5123034366l-1.1085065751-.8110970864c-1.7504332218-1.2808464209-2.6260290779-1.9212289979-3.5725979607-2.2062046625-1.088623292-.327715242-2.251795351-.327715242-3.3404186431,0-.9473002842.2849756646-1.8221647389.9254327362-3.5733293621,2.2062046625l-1.1085065751.8110970864c-5.8762415457,4.2990014714-8.8140101624,6.4484615737-10.5893110324,6.5123034366-2.7367957596.0984208967-5.1632876944-1.7299946154-5.796004101-4.3677396605-.4104516416-1.7113912848.9118137709-5.1174802943,3.5569947304-11.9296650856.707996575-1.8240846676,1.0616427063-2.7361659418,1.1191525291-3.5981800798.0965720764-1.4668966572-.3841753683-2.9139066453-1.3414172941-4.0373900189-.5631249159-.6603403547-1.3882811629-1.1821377042-3.0392979694-2.2258001256-6.1326112881-3.8774704528-9.1996212446-5.8162395403-9.9040691683-7.3424305044-1.2135845792-2.6309965125-.2385993967-5.7449448324,2.2652856439-7.2349906832,1.4529153773-.8643590245,5.0894432399-.7461242602,12.3624989651-.5097241469l.8436038162.0274106227c2.018884632.0656144955,3.0286791043.0984936982,3.9042478714-.1525344435,1.2618841618-.3618066749,2.3597447829-1.1410217702,3.1117608879-2.2076928612.5212183234-.7398040715.8180589443-1.7088330729,1.4117130973-3.6469655704Z"/>
</svg>