<svg width="36" height="36" viewBox="0 0 36 36" fill="none" xmlns="http://www.w3.org/2000/svg">
<path d="M27 4V5H28H32C32.7957 5 33.5587 5.31607 34.1213 5.87868C34.6839 6.44129 35 7.20435 35 8V13H1V8C1 7.20435 1.31607 6.44129 1.87868 5.87868C2.44129 5.31607 3.20435 5 4 5H8H9V4V2C9 1.73478 9.10536 1.48043 9.29289 1.29289C9.48043 1.10536 9.73478 1 10 1C10.2652 1 10.5196 1.10536 10.7071 1.29289C10.8946 1.48043 11 1.73478 11 2V4V5H12H24H25V4V2C25 1.73478 25.1054 1.48043 25.2929 1.29289C25.4804 1.10536 25.7348 1 26 1C26.2652 1 26.5196 1.10536 26.7071 1.29289C26.8946 1.48043 27 1.73478 27 2V4ZM35 19V32C35 32.7957 34.6839 33.5587 34.1213 34.1213C33.5587 34.6839 32.7957 35 32 35H4C3.20435 35 2.44129 34.6839 1.87868 34.1213C1.31607 33.5587 1 32.7957 1 32V19H35Z" stroke="white" stroke-width="2"/>
</svg>
