<svg width="16" height="16" viewBox="0 0 16 16" fill="none" xmlns="http://www.w3.org/2000/svg">
<g clip-path="url(#clip0_953_6969)">
<path d="M5.85134 12.9879L12.9173 8.27722C12.963 8.24677 13.0004 8.20553 13.0263 8.15715C13.0522 8.10877 13.0658 8.05475 13.0658 7.99988C13.0658 7.94501 13.0522 7.89099 13.0263 7.84261C13.0004 7.79423 12.963 7.75299 12.9173 7.72255L5.85134 3.01188C5.80115 2.97848 5.74283 2.95932 5.6826 2.95644C5.62238 2.95355 5.5625 2.96706 5.50934 2.99552C5.45619 3.02398 5.41175 3.06633 5.38075 3.11804C5.34976 3.16976 5.33337 3.22892 5.33334 3.28922V12.7105C5.33337 12.7708 5.34976 12.83 5.38075 12.8817C5.41175 12.9334 5.45619 12.9758 5.50934 13.0042C5.5625 13.0327 5.62238 13.0462 5.6826 13.0433C5.74283 13.0404 5.80115 13.0213 5.85134 12.9879Z" fill="#9374FF"/>
</g>
<defs>
<clipPath id="clip0_953_6969">
<rect width="16" height="16" fill="white"/>
</clipPath>
</defs>
</svg>
