<svg width="25" height="24" viewBox="0 0 25 24" fill="none" xmlns="http://www.w3.org/2000/svg">
<path d="M19.75 3H18.75C17.6454 3 16.75 3.89543 16.75 5V19C16.75 20.1046 17.6454 21 18.75 21H19.75C20.8546 21 21.75 20.1046 21.75 19V5C21.75 3.89543 20.8546 3 19.75 3Z" fill="#9374FF"/>
<path d="M13.25 9H12.25C11.1454 9 10.25 9.89543 10.25 11V19C10.25 20.1046 11.1454 21 12.25 21H13.25C14.3546 21 15.25 20.1046 15.25 19V11C15.25 9.89543 14.3546 9 13.25 9Z" fill="#9374FF"/>
<path d="M6.75 16H5.75C4.64543 16 3.75 16.8954 3.75 18V19C3.75 20.1046 4.64543 21 5.75 21H6.75C7.85457 21 8.75 20.1046 8.75 19V18C8.75 16.8954 7.85457 16 6.75 16Z" fill="#9374FF"/>
</svg>
