<svg width="25" height="24" viewBox="0 0 25 24" fill="none" xmlns="http://www.w3.org/2000/svg">
    <path d="M9.10004 14H19.1L15.65 9.5L13.35 12.5L11.8 10.5L9.10004 14ZM8.10004 18C7.55004 18 7.0792 17.8042 6.68754 17.4125C6.29587 17.0208 6.10004 16.55 6.10004 16V4C6.10004 3.45 6.29587 2.97917 6.68754 2.5875C7.0792 2.19583 7.55004 2 8.10004 2H20.1C20.65 2 21.1209 2.19583 21.5125 2.5875C21.9042 2.97917 22.1 3.45 22.1 4V16C22.1 16.55 21.9042 17.0208 21.5125 17.4125C21.1209 17.8042 20.65 18 20.1 18H8.10004ZM8.10004 16H20.1V4H8.10004V16ZM4.10004 22C3.55004 22 3.0792 21.8042 2.68754 21.4125C2.29587 21.0208 2.10004 20.55 2.10004 20V6H4.10004V20H18.1V22H4.10004Z"
          fill="white"/>
</svg>
