<svg width="25" height="24" viewBox="0 0 25 24" fill="none" xmlns="http://www.w3.org/2000/svg">
<path d="M21.9219 11.05V19C21.9219 19.55 21.7261 20.0208 21.3344 20.4125C20.9428 20.8042 20.4719 21 19.9219 21H5.92194C5.37194 21 4.90111 20.8042 4.50944 20.4125C4.11777 20.0208 3.92194 19.55 3.92194 19V11.05C3.53861 10.7 3.24277 10.25 3.03444 9.7C2.82611 9.15 2.82194 8.55 3.02194 7.9L4.07194 4.5C4.20527 4.06667 4.44277 3.70833 4.78444 3.425C5.12611 3.14167 5.52194 3 5.97194 3H19.8719C20.3219 3 20.7136 3.1375 21.0469 3.4125C21.3803 3.6875 21.6219 4.05 21.7719 4.5L22.8219 7.9C23.0219 8.55 23.0178 9.14167 22.8094 9.675C22.6011 10.2083 22.3053 10.6667 21.9219 11.05ZM15.1219 10C15.5719 10 15.9136 9.84583 16.1469 9.5375C16.3803 9.22917 16.4719 8.88333 16.4219 8.5L15.8719 5H13.9219V8.7C13.9219 9.05 14.0386 9.35417 14.2719 9.6125C14.5053 9.87083 14.7886 10 15.1219 10ZM10.6219 10C11.0053 10 11.3178 9.87083 11.5594 9.6125C11.8011 9.35417 11.9219 9.05 11.9219 8.7V5H9.97194L9.42194 8.5C9.35527 8.9 9.44277 9.25 9.68444 9.55C9.92611 9.85 10.2386 10 10.6219 10ZM6.17194 10C6.47194 10 6.73444 9.89167 6.95944 9.675C7.18444 9.45833 7.32194 9.18333 7.37194 8.85L7.92194 5H5.97194L4.97194 8.35C4.87194 8.68333 4.92611 9.04167 5.13444 9.425C5.34277 9.80833 5.68861 10 6.17194 10ZM19.6719 10C20.1553 10 20.5053 9.80833 20.7219 9.425C20.9386 9.04167 20.9886 8.68333 20.8719 8.35L19.8219 5H17.9219L18.4719 8.85C18.5219 9.18333 18.6594 9.45833 18.8844 9.675C19.1094 9.89167 19.3719 10 19.6719 10ZM5.92194 19H19.9219V11.95C19.8386 11.9833 19.7844 12 19.7594 12H19.6719C19.2219 12 18.8261 11.925 18.4844 11.775C18.1428 11.625 17.8053 11.3833 17.4719 11.05C17.1719 11.35 16.8303 11.5833 16.4469 11.75C16.0636 11.9167 15.6553 12 15.2219 12C14.7719 12 14.3511 11.9167 13.9594 11.75C13.5678 11.5833 13.2219 11.35 12.9219 11.05C12.6386 11.35 12.3094 11.5833 11.9344 11.75C11.5594 11.9167 11.1553 12 10.7219 12C10.2386 12 9.80111 11.9167 9.40944 11.75C9.01777 11.5833 8.67194 11.35 8.37194 11.05C8.02194 11.4 7.67611 11.6458 7.33444 11.7875C6.99277 11.9292 6.60527 12 6.17194 12H6.05944C6.01777 12 5.97194 11.9833 5.92194 11.95V19Z" fill="#C0C0C7"/>
</svg>
