<svg width="21" height="20" viewBox="0 0 21 20" fill="none" xmlns="http://www.w3.org/2000/svg">
<g clip-path="url(#clip0_3689_35829)">
<path d="M7.16671 2.5V10C7.16671 10.8841 7.5179 11.7319 8.14302 12.357C8.76814 12.9821 9.61598 13.3333 10.5 13.3333C11.3841 13.3333 12.2319 12.9821 12.8571 12.357C13.4822 11.7319 13.8334 10.8841 13.8334 10V2.5H15.5V10C15.5 11.3261 14.9733 12.5979 14.0356 13.5355C13.0979 14.4732 11.8261 15 10.5 15C9.17396 15 7.90219 14.4732 6.96451 13.5355C6.02682 12.5979 5.50004 11.3261 5.50004 10V2.5H7.16671ZM3.83337 16.6667H17.1667V18.3333H3.83337V16.6667Z" fill="black"/>
</g>
<defs>
<clipPath id="clip0_3689_35829">
<rect width="20" height="20" fill="white" transform="translate(0.5)"/>
</clipPath>
</defs>
</svg>
