<svg width="20" height="37" viewBox="0 0 20 37" fill="none" xmlns="http://www.w3.org/2000/svg">
<path d="M15.0968 20.371C16.043 20.371 16.8172 20.5645 17.4194 20.9516C18.0215 21.3387 18.5161 21.8333 18.9032 22.4355C19.3763 23.1236 19.6774 23.8763 19.8065 24.6935C19.9355 25.5107 20 26.1774 20 26.6935C20 28.8011 19.4624 30.715 18.3871 32.4355C17.3118 34.1559 15.6344 35.5538 13.3548 36.629L12.7742 35.4677C14.1075 34.9086 15.2688 34.0269 16.2581 32.8226C17.2043 31.6183 17.6774 30.3925 17.6774 29.1452C17.6774 28.629 17.6129 28.1774 17.4839 27.7903C16.7957 28.3495 16 28.629 15.0968 28.629C13.9785 28.629 13.0108 28.2634 12.1935 27.5322C11.3763 26.8011 10.9677 25.7903 10.9677 24.5C10.9677 23.2957 11.3763 22.3064 12.1935 21.5322C13.0108 20.7581 13.9785 20.371 15.0968 20.371ZM4.12903 20.371C5.07527 20.371 5.84946 20.5645 6.45161 20.9516C7.05376 21.3387 7.54839 21.8333 7.93549 22.4355C8.4086 23.1236 8.70968 23.8763 8.83871 24.6935C8.96774 25.5107 9.03226 26.1774 9.03226 26.6935C9.03226 28.8011 8.49462 30.715 7.41936 32.4355C6.34409 34.1559 4.66667 35.5538 2.3871 36.629L1.80645 35.4677C3.13978 34.9086 4.30108 34.0269 5.29032 32.8226C6.23656 31.6183 6.70968 30.3925 6.70968 29.1452C6.70968 28.629 6.64516 28.1774 6.51613 27.7903C5.82796 28.3495 5.03226 28.629 4.12903 28.629C3.01075 28.629 2.04301 28.2634 1.22581 27.5322C0.408603 26.8011 9.4755e-07 25.7903 1.06035e-06 24.5C1.16564e-06 23.2957 0.408603 22.3064 1.22581 21.5322C2.04301 20.7581 3.01075 20.371 4.12903 20.371Z" fill="black"/>
</svg>
