<svg width="15" height="15" viewBox="0 0 15 15" fill="none" xmlns="http://www.w3.org/2000/svg">
<path d="M2.537 5.20465L3.28717 11.5834H11.7128L12.463 5.20465L10.1238 6.7639L7.5 3.09065L4.87617 6.7639L2.537 5.20465ZM2.13392 3.5334L4.58334 5.16674L7.02517 1.7484C7.07913 1.67278 7.15037 1.61115 7.23296 1.56862C7.31555 1.52609 7.40711 1.50391 7.5 1.50391C7.5929 1.50391 7.68446 1.52609 7.76705 1.56862C7.84964 1.61115 7.92088 1.67278 7.97484 1.7484L10.4167 5.16674L12.8667 3.5334C12.9594 3.47171 13.0678 3.43786 13.1792 3.43583C13.2905 3.43381 13.4001 3.4637 13.495 3.52198C13.59 3.58026 13.6662 3.66449 13.7148 3.76471C13.7633 3.86494 13.7822 3.97697 13.7691 4.08757L12.8107 12.235C12.794 12.3769 12.7257 12.5077 12.619 12.6027C12.5122 12.6976 12.3743 12.7501 12.2314 12.7501H2.76859C2.62571 12.7501 2.48781 12.6976 2.38104 12.6027C2.27427 12.5077 2.20605 12.3769 2.18934 12.235L1.23092 4.08699C1.21797 3.97643 1.23692 3.86448 1.28553 3.76435C1.33415 3.66422 1.41039 3.58009 1.50527 3.52189C1.60015 3.46368 1.7097 3.43384 1.82099 3.43588C1.93227 3.43792 2.04066 3.47176 2.13334 3.5334H2.13392ZM7.5 9.25007C7.19059 9.25007 6.89384 9.12715 6.67505 8.90836C6.45625 8.68957 6.33334 8.39282 6.33334 8.0834C6.33334 7.77398 6.45625 7.47724 6.67505 7.25844C6.89384 7.03965 7.19059 6.91674 7.5 6.91674C7.80942 6.91674 8.10617 7.03965 8.32496 7.25844C8.54376 7.47724 8.66667 7.77398 8.66667 8.0834C8.66667 8.39282 8.54376 8.68957 8.32496 8.90836C8.10617 9.12715 7.80942 9.25007 7.5 9.25007Z" fill="#BF9427"/>
</svg>
