<svg width="24" height="24" viewBox="0 0 24 24" fill="none" xmlns="http://www.w3.org/2000/svg">
<path d="M19.2431 4.75698C20.1831 5.69998 20.7461 6.87498 20.9321 8.09498C19.5991 7.84698 18.1931 8.08498 17.0001 8.80798C14.8501 7.50498 12.0061 7.77798 10.1441 9.62598C8.01314 11.741 7.95414 15.141 9.96614 17.327L10.1441 17.512L12.5651 19.916L11.0001 21.485L2.52015 12.993C0.417145 10.637 0.496145 7.01898 2.75715 4.75698C5.02215 2.49298 8.64515 2.41698 11.0011 4.52898C13.3501 2.41998 16.9801 2.48998 19.2431 4.75698Z" fill="black"/>
<path d="M19.2431 4.75698C20.1831 5.69998 20.7461 6.87498 20.9321 8.09498C19.5991 7.84698 18.1931 8.08498 17.0001 8.80798C14.8501 7.50498 12.0061 7.77798 10.1441 9.62598C8.01314 11.741 7.95414 15.141 9.96614 17.327L10.1441 17.512L12.5651 19.916L11.0001 21.485L2.52015 12.993C0.417145 10.637 0.496145 7.01898 2.75715 4.75698C5.02215 2.49298 8.64515 2.41698 11.0011 4.52898C13.3501 2.41998 16.9801 2.48998 19.2431 4.75698Z" fill="black"/>
<path d="M17.363 11.045C18.767 9.65199 21.043 9.65199 22.447 11.045C23.851 12.439 23.851 14.699 22.447 16.092L17 21.5L11.553 16.092C10.149 14.699 10.149 12.439 11.553 11.045C12.957 9.65199 15.233 9.65199 16.637 11.045L17 11.405L17.363 11.045Z" fill="black"/>
<path d="M17.363 11.045C18.767 9.65199 21.043 9.65199 22.447 11.045C23.851 12.439 23.851 14.699 22.447 16.092L17 21.5L11.553 16.092C10.149 14.699 10.149 12.439 11.553 11.045C12.957 9.65199 15.233 9.65199 16.637 11.045L17 11.405L17.363 11.045Z" fill="black"/>
</svg>
