<svg width="20" height="20" viewBox="0 0 20 20" fill="none" xmlns="http://www.w3.org/2000/svg">
<g clip-path="url(#clip0_2897_36535)">
<path d="M9.31442 5.55195L9.315 12.2182C9.31308 12.3288 9.33321 12.4388 9.37422 12.5415C9.41523 12.6443 9.4763 12.7379 9.55386 12.8168C9.63142 12.8957 9.72392 12.9584 9.82597 13.0012C9.92801 13.044 10.0376 13.066 10.1482 13.066C10.2589 13.066 10.3684 13.044 10.4705 13.0012C10.5725 12.9584 10.665 12.8957 10.7426 12.8168C10.8201 12.7379 10.8812 12.6443 10.9222 12.5415C10.9632 12.4388 10.9833 12.3288 10.9814 12.2182L10.982 5.55195C10.982 4.88886 10.7186 4.25292 10.2497 3.78404C9.78083 3.31516 9.14489 3.05174 8.4818 3.05174C7.8187 3.05174 7.18276 3.31516 6.71388 3.78404C6.245 4.25292 5.98159 4.88886 5.98159 5.55195L5.98159 12.2188C5.97463 12.7704 6.07727 13.3178 6.28355 13.8294C6.48983 14.341 6.79564 14.8066 7.18324 15.1991C7.57084 15.5915 8.03252 15.9032 8.54149 16.1158C9.05046 16.3285 9.5966 16.438 10.1482 16.438C10.6998 16.4379 11.246 16.3284 11.7549 16.1156C12.2638 15.9029 12.7255 15.5912 13.113 15.1986C13.5006 14.8061 13.8063 14.3405 14.0125 13.8289C14.2187 13.3173 14.3213 12.7698 14.3142 12.2182L14.3148 5.55195L15.9813 5.55195L15.9813 12.2188C15.9813 12.9849 15.8304 13.7435 15.5372 14.4512C15.244 15.159 14.8143 15.8021 14.2726 16.3438C13.7309 16.8855 13.0878 17.3152 12.3801 17.6084C11.6723 17.9015 10.9137 18.0524 10.1476 18.0524C9.38154 18.0524 8.62296 17.9015 7.91519 17.6084C7.20742 17.3152 6.56433 16.8855 6.02262 16.3438C5.48092 15.8021 5.05122 15.159 4.75805 14.4512C4.46488 13.7435 4.31399 12.9849 4.31399 12.2188L4.31517 5.55195C4.33416 4.45959 4.78143 3.41838 5.56064 2.65259C6.33986 1.8868 7.38868 1.4577 8.48121 1.4577C9.57374 1.4577 10.6226 1.8868 11.4018 2.65259C12.181 3.41839 12.6283 4.45959 12.6472 5.55195L12.649 12.2194C12.649 12.5478 12.5843 12.8729 12.4586 13.1763C12.3329 13.4796 12.1486 13.7553 11.9164 13.9874C11.6842 14.2196 11.4085 14.4037 11.1051 14.5294C10.8017 14.655 10.4766 14.7196 10.1482 14.7196C9.81984 14.7196 9.49469 14.6548 9.19133 14.5291C8.88797 14.4034 8.61234 14.2192 8.38017 13.987C8.14801 13.7548 7.96385 13.4791 7.83823 13.1757C7.7126 12.8723 7.64796 12.5472 7.648 12.2188L7.648 5.55195L9.31442 5.55195Z" fill="black"/>
</g>
<defs>
<clipPath id="clip0_2897_36535">
<rect width="20" height="20" fill="white"/>
</clipPath>
</defs>
</svg>
