<svg width="25" height="24" viewBox="0 0 25 24" fill="none" xmlns="http://www.w3.org/2000/svg">
<path d="M5.125 21.476C4.575 21.476 4.10417 21.2802 3.7125 20.8885C3.32083 20.4969 3.125 20.026 3.125 19.476V14.926L5.875 11.801L7.3 13.226L5.3 15.476H18.95L17 13.276L18.425 11.851L21.125 14.926V19.476C21.125 20.026 20.9292 20.4969 20.5375 20.8885C20.1458 21.2802 19.675 21.476 19.125 21.476H5.125ZM5.125 19.476H19.125V17.476H5.125V19.476ZM10.75 13.851L7.225 10.326C6.84167 9.94271 6.65417 9.47187 6.6625 8.91354C6.67083 8.35521 6.86667 7.88438 7.25 7.50104L12.15 2.60104C12.5333 2.21771 13.0083 2.01771 13.575 2.00104C14.1417 1.98437 14.6167 2.16771 15 2.55104L18.525 6.07604C18.9083 6.45938 19.1083 6.92604 19.125 7.47604C19.1417 8.02604 18.9583 8.49271 18.575 8.87604L13.575 13.876C13.1917 14.2594 12.7208 14.4469 12.1625 14.4385C11.6042 14.4302 11.1333 14.2344 10.75 13.851ZM17.125 7.50104L13.6 3.97604L8.65 8.92604L12.175 12.451L17.125 7.50104Z" fill="black"/>
</svg>
