<svg width="21" height="19" viewBox="0 0 21 19" fill="none" xmlns="http://www.w3.org/2000/svg">
<path d="M11.625 15V17H15.625V19H5.625V17H9.625V15H1.625C1.35978 15 1.10543 14.8946 0.917893 14.7071C0.730357 14.5196 0.625 14.2652 0.625 14V1C0.625 0.734784 0.730357 0.48043 0.917893 0.292893C1.10543 0.105357 1.35978 0 1.625 0H19.625C19.8902 0 20.1446 0.105357 20.3321 0.292893C20.5196 0.48043 20.625 0.734784 20.625 1V14C20.625 14.2652 20.5196 14.5196 20.3321 14.7071C20.1446 14.8946 19.8902 15 19.625 15H11.625ZM2.625 2V13H18.625V2H2.625ZM8.625 4.5L13.625 7.5L8.625 10.5V4.5Z" fill="#C0C0C7"/>
</svg>
