<svg width="25" height="24" viewBox="0 0 25 24" fill="none" xmlns="http://www.w3.org/2000/svg">
<path fill-rule="evenodd" clip-rule="evenodd" d="M15.606 15.686L15.506 15.936C13.7172 16.5334 11.7828 16.5334 9.994 15.936L9.894 15.686C9.799 15.456 9.751 15.34 9.668 15.234C9.586 15.127 9.442 15.019 9.154 14.804C8.14559 14.049 7.4004 12.9957 7.02404 11.7936C6.64768 10.5914 6.65925 9.30122 7.05711 8.10598C7.45497 6.91074 8.21894 5.87104 9.24072 5.13425C10.2625 4.39747 11.4903 4.00098 12.75 4.00098C14.0097 4.00098 15.2375 4.39747 16.2593 5.13425C17.2811 5.87104 18.045 6.91074 18.4429 8.10598C18.8408 9.30122 18.8523 10.5914 18.476 11.7936C18.0996 12.9957 17.3544 14.049 16.346 14.804C16.058 15.019 15.914 15.127 15.832 15.234C15.75 15.341 15.702 15.455 15.606 15.686ZM10.6 18.166C10.6867 18.694 10.736 19.2266 10.748 19.764C10.749 19.835 10.7694 19.9043 10.8069 19.9646C10.8445 20.0249 10.8977 20.0738 10.961 20.106C11.5165 20.3837 12.129 20.5283 12.75 20.5283C13.371 20.5283 13.9835 20.3837 14.539 20.106C14.6023 20.0738 14.6555 20.0249 14.6931 19.9646C14.7306 19.9043 14.751 19.835 14.752 19.764C14.764 19.2266 14.8133 18.694 14.9 18.166C13.4814 18.4569 12.0186 18.4569 10.6 18.166Z" fill="#9374FF"/>
</svg>
