<svg width="36" height="16" viewBox="0 0 36 16" fill="none" xmlns="http://www.w3.org/2000/svg">
<path d="M27.41 8.32007C26.3345 8.12269 25.3648 7.54784 24.6755 6.69903C23.9862 5.85021 23.6225 4.78319 23.65 3.69007H26.87C27.08 3.70492 27.2907 3.67449 27.4879 3.60084C27.6852 3.52719 27.8642 3.41204 28.0131 3.26318C28.162 3.11432 28.2771 2.93523 28.3508 2.73801C28.4244 2.5408 28.4548 2.33007 28.44 2.12007C28.456 1.90844 28.4266 1.69582 28.3538 1.49647C28.281 1.29711 28.1664 1.11561 28.0178 0.96412C27.8691 0.812629 27.6898 0.694644 27.4919 0.618064C27.2939 0.541483 27.0819 0.508075 26.87 0.520075H16.6C16.3871 0.502211 16.1728 0.530657 15.972 0.603458C15.7711 0.676259 15.5884 0.791688 15.4363 0.941814C15.2843 1.09194 15.1666 1.2732 15.0913 1.47314C15.016 1.67308 14.9848 1.88696 15 2.10007C14.9846 2.3128 15.0157 2.52632 15.0911 2.72582C15.1665 2.92533 15.2844 3.10604 15.4366 3.25542C15.5888 3.40479 15.7717 3.51925 15.9726 3.59086C16.1735 3.66246 16.3876 3.68949 16.6 3.67007H19.8C19.832 4.76276 19.4713 5.83073 18.7833 6.6802C18.0952 7.52968 17.1255 8.1044 16.05 8.30007C15.8492 8.32874 15.6563 8.39812 15.4832 8.50396C15.3101 8.6098 15.1605 8.74988 15.0434 8.9156C14.9264 9.08132 14.8444 9.2692 14.8026 9.46772C14.7607 9.66623 14.7598 9.87121 14.8 10.0701C14.8916 10.5101 15.1529 10.8964 15.5272 11.1453C15.9015 11.3942 16.3587 11.4857 16.8 11.4001C18.7268 11.1438 20.4885 10.1774 21.74 8.69007C22.9915 10.1774 24.7532 11.1438 26.68 11.4001C27.1213 11.4857 27.5785 11.3942 27.9528 11.1453C28.3271 10.8964 28.5883 10.5101 28.68 10.0701C28.7171 9.87265 28.714 9.66975 28.6707 9.47358C28.6274 9.2774 28.5449 9.09201 28.4282 8.92854C28.3114 8.76507 28.1628 8.62689 27.9912 8.52233C27.8197 8.41777 27.6288 8.34897 27.43 8.32007" fill="white"/>
<path d="M29.56 2.15998V11.41H33.17V2.15998C33.1761 1.92812 33.1321 1.69766 33.0409 1.4844C32.9497 1.27113 32.8135 1.08009 32.6416 0.92435C32.4697 0.768609 32.2662 0.651847 32.045 0.582055C31.8238 0.512262 31.5901 0.491089 31.36 0.519983C31.1303 0.490918 30.8971 0.512044 30.6763 0.581903C30.4556 0.651761 30.2527 0.768688 30.0816 0.92461C29.9104 1.08053 29.7752 1.27174 29.6851 1.48502C29.5951 1.69831 29.5524 1.92859 29.56 2.15998Z" fill="white"/>
<path d="M34.36 7.79993H33.17V6.60993C33.1761 6.37807 33.1321 6.14761 33.0409 5.93435C32.9497 5.72108 32.8135 5.53004 32.6416 5.3743C32.4697 5.21856 32.2662 5.1018 32.045 5.03201C31.8238 4.96221 31.5901 4.94104 31.36 4.96993C31.1303 4.94087 30.8971 4.962 30.6763 5.03185C30.4556 5.10171 30.2527 5.21864 30.0816 5.37456C29.9104 5.53048 29.7752 5.72169 29.6851 5.93497C29.5951 6.14826 29.5524 6.37855 29.56 6.60993V11.4099H34.36C34.5914 11.4176 34.8217 11.3749 35.035 11.2848C35.2483 11.1948 35.4395 11.0595 35.5954 10.8884C35.7513 10.7172 35.8682 10.5143 35.9381 10.2936C36.0079 10.0729 36.0291 9.83962 36 9.60993C36.0306 9.37948 36.0107 9.14513 35.9416 8.92317C35.8724 8.70121 35.7557 8.49698 35.5996 8.32471C35.4435 8.15243 35.2518 8.01624 35.0377 7.92561C34.8236 7.83498 34.5923 7.79209 34.36 7.79993Z" fill="#FDAA63"/>
<path d="M10.88 15.53H12.28C12.4932 15.549 12.7081 15.5219 12.9099 15.4504C13.1117 15.379 13.2957 15.2649 13.4494 15.1159C13.6032 14.9669 13.723 14.7865 13.8007 14.5871C13.8785 14.3876 13.9123 14.1737 13.9 13.96C13.9122 13.7459 13.8783 13.5316 13.8006 13.3317C13.7229 13.1318 13.6033 12.9509 13.4497 12.8012C13.2962 12.6514 13.1123 12.5363 12.9106 12.4637C12.7088 12.391 12.4938 12.3625 12.28 12.38H1.62C1.40625 12.3625 1.19123 12.391 0.989448 12.4637C0.787663 12.5363 0.603804 12.6514 0.45027 12.8012C0.296736 12.9509 0.177098 13.1318 0.0994245 13.3317C0.0217507 13.5316 -0.0121528 13.7459 7.21542e-07 13.96C-0.0123414 14.1737 0.0215166 14.3876 0.0992692 14.5871C0.177022 14.7865 0.296843 14.9669 0.450575 15.1159C0.604306 15.2649 0.788337 15.379 0.990138 15.4504C1.19194 15.5219 1.40677 15.549 1.62 15.53H10.88Z" fill="white"/>
<path d="M12.37 8.32003H9.43V3.61003H12.25C12.455 3.61913 12.6596 3.5846 12.8503 3.50874C13.041 3.43287 13.2134 3.31739 13.3562 3.16993C13.4989 3.02247 13.6087 2.84639 13.6783 2.65334C13.7479 2.46028 13.7758 2.25465 13.76 2.05003C13.7771 1.84417 13.7504 1.63703 13.6815 1.44227C13.6126 1.24752 13.5032 1.0696 13.3605 0.920264C13.2178 0.770928 13.045 0.653577 12.8536 0.575965C12.6621 0.498352 12.4564 0.462246 12.25 0.470032H1.58C0.84 0.470032 0 0.820031 0 1.75003V10.18C0 11.11 0.84 11.47 1.58 11.47H12.37C12.5773 11.4746 12.7833 11.4361 12.975 11.3569C13.1666 11.2778 13.3398 11.1599 13.4836 11.0105C13.6274 10.861 13.7386 10.6835 13.8103 10.4889C13.8819 10.2943 13.9125 10.087 13.9 9.88003C13.9112 9.67477 13.8796 9.46942 13.8071 9.27706C13.7346 9.08471 13.6228 8.90956 13.4788 8.7628C13.3349 8.61604 13.162 8.50087 12.9711 8.42464C12.7801 8.3484 12.5754 8.31278 12.37 8.32003ZM3.14 8.32003V3.61003H6.28V8.32003H3.14Z" fill="white"/>
</svg>
