<?xml version="1.0" encoding="UTF-8"?>
<svg id="_레이어_2" data-name="레이어 2" xmlns="http://www.w3.org/2000/svg" viewBox="0 0 139.400390625 115.046875">
  <g id="_레이어_4" data-name="레이어 4">
    <g>
      <path d="M29.7734375,37.650390625h-.578125L0,54.6328125l5.564453125-26.376953125,29.91796875-17.48828125h30.640625l-22.185546875,104.279296875H13.296875L29.7734375,37.650390625Z"/>
      <path d="M97.630859375,9.828125c8.81640625,0,15.03125,5.130859375,15.609375,12.28515625h-4.263671875c-.650390625-4.986328125-5.203125-8.52734375-11.490234375-8.52734375-6.431640625,0-10.767578125,3.1796875-10.6953125,7.443359375,0,3.396484375,2.3125,5.34765625,8.23828125,7.2265625l3.7578125,1.228515625c7.876953125,2.45703125,10.984375,5.4921875,11.056640625,10.767578125.072265625,7.08203125-6.50390625,11.99609375-15.970703125,11.99609375-9.611328125,0-16.548828125-5.275390625-17.19921875-12.71875h4.408203125c.8671875,5.34765625,5.92578125,8.9609375,13.080078125,8.9609375,6.6484375,0,11.2734375-3.396484375,11.201171875-7.94921875-.072265625-3.46875-2.16796875-5.275390625-8.744140625-7.37109375l-3.7578125-1.228515625c-7.298828125-2.3125-10.40625-5.4921875-10.478515625-10.55078125,0-6.720703125,6.21484375-11.5625,15.248046875-11.5625Z"/>
      <path d="M118.876953125,44.37109375c0-1.083984375.14453125-2.240234375.43359375-3.61328125l5.63671875-26.232421875h-6.287109375l.794921875-3.830078125h6.287109375l2.240234375-10.6953125h4.48046875l-2.240234375,10.6953125h9.177734375l-.794921875,3.830078125h-9.177734375l-5.4921875,25.4375c-.216796875,1.15625-.361328125,2.240234375-.361328125,3.107421875,0,3.1796875,2.45703125,4.697265625,6.431640625,4.697265625h2.6015625l-.72265625,3.7578125c-.650390625.072265625-2.6015625.14453125-3.251953125.14453125-5.78125,0-9.68359375-2.45703125-9.755859375-7.298828125Z"/>
    </g>
  </g>
</svg>