<svg width="20" height="20" viewBox="0 0 20 20" fill="none" xmlns="http://www.w3.org/2000/svg">
<g clip-path="url(#clip0_2897_36531)">
<path d="M16.3384 5.82933C16.275 5.581 16.095 5.3935 15.8892 5.336C15.525 5.2335 13.75 5.00016 10 5.00016C6.25002 5.00016 4.47669 5.2335 4.10919 5.336C3.90585 5.39266 3.72585 5.58016 3.66169 5.82933C3.57085 6.18266 3.33335 7.6635 3.33335 10.0002C3.33335 12.3368 3.57085 13.8168 3.66169 14.1718C3.72502 14.4193 3.90502 14.6068 4.11002 14.6635C4.47669 14.7668 6.25002 15.0002 10 15.0002C13.75 15.0002 15.5242 14.7668 15.8909 14.6643C16.0942 14.6077 16.2742 14.4202 16.3384 14.171C16.4292 13.8177 16.6667 12.3335 16.6667 10.0002C16.6667 7.66683 16.4292 6.1835 16.3384 5.82933ZM17.9525 5.41516C18.3334 6.90016 18.3334 10.0002 18.3334 10.0002C18.3334 10.0002 18.3334 13.1002 17.9525 14.5852C17.7409 15.406 17.1217 16.0518 16.3375 16.2702C14.9134 16.6668 10 16.6668 10 16.6668C10 16.6668 5.08919 16.6668 3.66252 16.2702C2.87502 16.0485 2.25669 15.4035 2.04752 14.5852C1.66669 13.1002 1.66669 10.0002 1.66669 10.0002C1.66669 10.0002 1.66669 6.90016 2.04752 5.41516C2.25919 4.59433 2.87835 3.9485 3.66252 3.73016C5.08919 3.3335 10 3.3335 10 3.3335C10 3.3335 14.9134 3.3335 16.3375 3.73016C17.125 3.95183 17.7434 4.59683 17.9525 5.41516V5.41516ZM8.33335 12.9168V7.0835L13.3334 10.0002L8.33335 12.9168Z" fill="black"/>
</g>
<defs>
<clipPath id="clip0_2897_36531">
<rect width="20" height="20" fill="white"/>
</clipPath>
</defs>
</svg>
