<svg width="21" height="20" viewBox="0 0 21 20" fill="none" xmlns="http://www.w3.org/2000/svg">
<g clip-path="url(#clip0_3692_42803)">
<path d="M7.16667 9.16683H10.9167C11.4692 9.16683 11.9991 8.94734 12.3898 8.55663C12.7805 8.16593 13 7.63603 13 7.0835C13 6.53096 12.7805 6.00106 12.3898 5.61036C11.9991 5.21966 11.4692 5.00016 10.9167 5.00016H7.16667V9.16683ZM15.5 12.9168C15.5 13.4093 15.403 13.8969 15.2145 14.3519C15.0261 14.8069 14.7499 15.2203 14.4016 15.5685C14.0534 15.9167 13.64 16.1929 13.1851 16.3814C12.7301 16.5698 12.2425 16.6668 11.75 16.6668H5.5V3.3335H10.9167C11.6508 3.33353 12.3688 3.54904 12.9816 3.95331C13.5944 4.35758 14.075 4.93283 14.3639 5.60772C14.6528 6.28261 14.7373 7.02746 14.6068 7.74991C14.4764 8.47235 14.1367 9.14061 13.63 9.67183C14.1989 10.0012 14.6711 10.4745 14.9993 11.044C15.3276 11.6136 15.5002 12.2595 15.5 12.9168ZM7.16667 10.8335V15.0002H11.75C12.3025 15.0002 12.8324 14.7807 13.2231 14.39C13.6138 13.9993 13.8333 13.4694 13.8333 12.9168C13.8333 12.3643 13.6138 11.8344 13.2231 11.4437C12.8324 11.053 12.3025 10.8335 11.75 10.8335H7.16667Z" fill="black" stroke="black" stroke-width="0.7"/>
</g>
<defs>
<clipPath id="clip0_3692_42803">
<rect width="20" height="20" fill="white" transform="translate(0.5)"/>
</clipPath>
</defs>
</svg>
