<svg width="20" height="20" viewBox="0 0 20 20" fill="none" xmlns="http://www.w3.org/2000/svg">
<g clip-path="url(#clip0_3689_35833)">
<path d="M14 9.16602V10.8336L6.00057 10.833L6 9.16602L14 9.16602Z" fill="black"/>
<path d="M8 14L7.38436 13.9996C5.95634 13.9996 4.58681 13.5782 3.57704 12.8281C2.56728 12.078 2 11.0606 2 9.9998C2 8.93899 2.56728 7.92162 3.57704 7.17151C4.58681 6.42141 5.95634 6 7.38436 6L8 6.0004" stroke="black" stroke-width="1.67"/>
<path d="M12 14L12.6156 13.9996C14.0437 13.9996 15.4132 13.5782 16.423 12.8281C17.4327 12.078 18 11.0606 18 9.9998C18 8.93899 17.4327 7.92162 16.423 7.17151C15.4132 6.42141 14.0437 6 12.6156 6L12 6.0004" stroke="black" stroke-width="1.67"/>
</g>
<defs>
<clipPath id="clip0_3689_35833">
<rect width="20" height="20" fill="white"/>
</clipPath>
</defs>
</svg>
