<svg width="20" height="21" viewBox="0 0 20 21" fill="none" xmlns="http://www.w3.org/2000/svg">
<path d="M2.48166 14.6681C2.12938 14.059 1.85554 13.4077 1.66666 12.7298C2.07775 12.5207 2.42299 12.202 2.66418 11.8089C2.90538 11.4158 3.03313 10.9636 3.0333 10.5024C3.03347 10.0412 2.90606 9.58893 2.66516 9.19564C2.42426 8.80235 2.07926 8.48336 1.66832 8.27397C2.04502 6.91188 2.76226 5.6681 3.75249 4.6598C4.13923 4.91124 4.58801 5.05077 5.04914 5.06295C5.51027 5.07514 5.96578 4.9595 6.36526 4.72883C6.76475 4.49816 7.09262 4.16147 7.3126 3.756C7.53257 3.35054 7.63608 2.89212 7.61166 2.43147C8.98008 2.07782 10.416 2.0784 11.7842 2.43314C11.76 2.89377 11.8637 3.35213 12.0838 3.75748C12.304 4.16283 12.632 4.49937 13.0315 4.72985C13.4311 4.96034 13.8866 5.07579 14.3477 5.06343C14.8088 5.05107 15.2575 4.91137 15.6442 4.6598C16.1267 5.15147 16.555 5.71064 16.915 6.3348C17.2758 6.95897 17.5458 7.6098 17.73 8.27314C17.3189 8.48222 16.9737 8.80095 16.7325 9.19406C16.4913 9.58717 16.3635 10.0393 16.3633 10.5005C16.3632 10.9617 16.4906 11.414 16.7315 11.8073C16.9724 12.2006 17.3174 12.5196 17.7283 12.729C17.3516 14.0911 16.6344 15.3348 15.6442 16.3431C15.2574 16.0917 14.8086 15.9522 14.3475 15.94C13.8864 15.9278 13.4309 16.0434 13.0314 16.2741C12.6319 16.5048 12.304 16.8415 12.0841 17.2469C11.8641 17.6524 11.7606 18.1108 11.785 18.5715C10.4166 18.9251 8.98063 18.9245 7.61249 18.5698C7.6367 18.1092 7.53299 17.6508 7.31284 17.2455C7.09269 16.8401 6.76469 16.5036 6.36513 16.2731C5.96557 16.0426 5.51004 15.9271 5.04893 15.9395C4.58782 15.9519 4.13912 16.0916 3.75249 16.3431C3.25998 15.8406 2.83299 15.2778 2.48166 14.6681ZM7.19832 14.8315C8.08635 15.3437 8.75403 16.1656 9.07332 17.1398C9.48916 17.179 9.90666 17.1798 10.3225 17.1406C10.642 16.1663 11.31 15.3443 12.1983 14.8323C13.086 14.3187 14.1321 14.151 15.1358 14.3615C15.3775 14.0215 15.5858 13.659 15.7592 13.2798C15.0753 12.516 14.6976 11.5266 14.6983 10.5015C14.6983 9.45147 15.09 8.47064 15.7592 7.72314C15.5846 7.34409 15.3754 6.982 15.1342 6.64147C14.1311 6.85173 13.0857 6.68437 12.1983 6.17147C11.3103 5.65928 10.6426 4.83729 10.3233 3.86314C9.90749 3.82397 9.48999 3.82314 9.07416 3.8623C8.75465 4.83659 8.08666 5.6586 7.19832 6.17064C6.31064 6.68423 5.26455 6.8519 4.26082 6.64147C4.01963 6.98171 3.81093 7.34386 3.63749 7.72314C4.3213 8.48694 4.69906 9.47629 4.69832 10.5015C4.69832 11.5515 4.30666 12.5323 3.63749 13.2798C3.81205 13.6588 4.02127 14.0209 4.26249 14.3615C5.26559 14.1512 6.311 14.3186 7.19832 14.8315ZM9.69832 13.0015C9.03528 13.0015 8.3994 12.7381 7.93056 12.2692C7.46172 11.8004 7.19832 11.1645 7.19832 10.5015C7.19832 9.83843 7.46172 9.20254 7.93056 8.7337C8.3994 8.26486 9.03528 8.00147 9.69832 8.00147C10.3614 8.00147 10.9973 8.26486 11.4661 8.7337C11.9349 9.20254 12.1983 9.83843 12.1983 10.5015C12.1983 11.1645 11.9349 11.8004 11.4661 12.2692C10.9973 12.7381 10.3614 13.0015 9.69832 13.0015ZM9.69832 11.3348C9.91934 11.3348 10.1313 11.247 10.2876 11.0907C10.4439 10.9344 10.5317 10.7225 10.5317 10.5015C10.5317 10.2805 10.4439 10.0685 10.2876 9.91221C10.1313 9.75593 9.91934 9.66814 9.69832 9.66814C9.47731 9.66814 9.26535 9.75593 9.10907 9.91221C8.95279 10.0685 8.86499 10.2805 8.86499 10.5015C8.86499 10.7225 8.95279 10.9344 9.10907 11.0907C9.26535 11.247 9.47731 11.3348 9.69832 11.3348Z" fill="black"/>
</svg>
