<svg width="20" height="20" viewBox="0 0 20 20" fill="none" xmlns="http://www.w3.org/2000/svg">
<path d="M15.7766 6.46017L10.6682 15.2168C10.6315 15.2796 10.579 15.3316 10.5159 15.3678C10.4528 15.404 10.3814 15.423 10.3086 15.423C10.2359 15.423 10.1645 15.404 10.1014 15.3678C10.0383 15.3316 9.98579 15.2796 9.94905 15.2168L4.84072 6.46017C4.8037 6.39672 4.7841 6.32462 4.78393 6.25116C4.78375 6.17771 4.803 6.10551 4.83972 6.04189C4.87643 5.97827 4.92932 5.92548 4.99301 5.88889C5.0567 5.85229 5.12893 5.83318 5.20239 5.8335L15.4166 5.8335C15.4899 5.83348 15.5619 5.8528 15.6253 5.88952C15.6888 5.92623 15.7415 5.97904 15.778 6.04261C15.8145 6.10619 15.8336 6.17827 15.8333 6.25158C15.8331 6.32489 15.8135 6.39684 15.7766 6.46017Z" fill="#252528"/>
</svg>
