<svg width="24" height="24" viewBox="0 0 24 24" fill="none" xmlns="http://www.w3.org/2000/svg">
<path d="M7.752 5.06815L18.26 11.1981C18.3353 11.2422 18.3978 11.3053 18.4412 11.381C18.4846 11.4567 18.5074 11.5424 18.5074 11.6296C18.5074 11.7169 18.4846 11.8026 18.4412 11.8783C18.3978 11.954 18.3353 12.0171 18.26 12.0611L7.752 18.1911C7.67587 18.2356 7.58935 18.2591 7.5012 18.2593C7.41305 18.2595 7.32642 18.2364 7.25007 18.1924C7.17373 18.1483 7.11039 18.0848 7.06647 18.0084C7.02256 17.932 6.99963 17.8453 7 17.7571V5.50015C6.99998 5.41217 7.02317 5.32574 7.06723 5.2496C7.11129 5.17345 7.17466 5.11027 7.25094 5.06645C7.32723 5.02262 7.41373 4.9997 7.5017 5C7.58968 5.0003 7.67602 5.02381 7.752 5.06815Z" fill="black"/>
</svg>
