<svg width="24" height="25" viewBox="0 0 24 25" fill="none" xmlns="http://www.w3.org/2000/svg">
<path d="M12.4806 6.98721L13.1555 9.3389C13.3454 10.0006 13.9613 10.4481 14.6493 10.4242L17.0945 10.3394C17.5964 10.322 17.8078 10.9726 17.3915 11.2535L15.3635 12.6221C14.7928 13.0072 14.5576 13.7313 14.7929 14.3782L15.6292 16.6775C15.8008 17.1495 15.2474 17.5516 14.8515 17.2424L12.9232 15.7366C12.3807 15.3129 11.6193 15.3129 11.0768 15.7366L9.14848 17.2424C8.75263 17.5516 8.19917 17.1495 8.37085 16.6775L9.20713 14.3782C9.44243 13.7313 9.20717 13.0072 8.63654 12.6221L6.60851 11.2535C6.19219 10.9726 6.40359 10.322 6.90554 10.3394L9.35068 10.4242C10.0387 10.4481 10.6546 10.0006 10.8445 9.33889L11.5194 6.98721C11.6579 6.50444 12.3421 6.50444 12.4806 6.98721ZM23.5 12.5C23.5 18.8513 18.3513 24 12 24C5.64873 24 0.5 18.8513 0.5 12.5C0.5 6.14873 5.64873 1 12 1C18.3513 1 23.5 6.14873 23.5 12.5ZM12 21C16.6944 21 20.5 17.1944 20.5 12.5C20.5 7.80558 16.6944 4 12 4C7.30558 4 3.5 7.80558 3.5 12.5C3.5 17.1944 7.30558 21 12 21Z" fill="#83FBC8" stroke="#9374FF"/>
</svg>
