<svg width="36" height="30" viewBox="0 0 36 30" fill="none" xmlns="http://www.w3.org/2000/svg">
<rect width="36" height="30" rx="8" fill="#5ACD87"/>
<mask id="mask0_45_882" style="mask-type:alpha" maskUnits="userSpaceOnUse" x="6" y="3" width="24" height="24">
<rect x="6" y="3" width="24" height="24" fill="#D9D9D9"/>
</mask>
<g mask="url(#mask0_45_882)">
<path d="M25.6 24L19.3 17.7C18.8 18.1 18.225 18.4167 17.575 18.65C16.925 18.8833 16.2333 19 15.5 19C13.6833 19 12.1458 18.3708 10.8875 17.1125C9.62917 15.8542 9 14.3167 9 12.5C9 10.6833 9.62917 9.14583 10.8875 7.8875C12.1458 6.62917 13.6833 6 15.5 6C17.3167 6 18.8542 6.62917 20.1125 7.8875C21.3708 9.14583 22 10.6833 22 12.5C22 13.2333 21.8833 13.925 21.65 14.575C21.4167 15.225 21.1 15.8 20.7 16.3L27 22.6L25.6 24ZM15.5 17C16.75 17 17.8125 16.5625 18.6875 15.6875C19.5625 14.8125 20 13.75 20 12.5C20 11.25 19.5625 10.1875 18.6875 9.3125C17.8125 8.4375 16.75 8 15.5 8C14.25 8 13.1875 8.4375 12.3125 9.3125C11.4375 10.1875 11 11.25 11 12.5C11 13.75 11.4375 14.8125 12.3125 15.6875C13.1875 16.5625 14.25 17 15.5 17Z" fill="white"/>
</g>
</svg>
