<svg width="61" height="60" viewBox="0 0 61 60" fill="none" xmlns="http://www.w3.org/2000/svg">
<mask id="mask0_1_477" style="mask-type:alpha" maskUnits="userSpaceOnUse" x="0" y="0" width="61" height="60">
<rect x="0.5" width="60" height="60" fill="#D9D9D9"/>
</mask>
<g mask="url(#mask0_1_477)">
<path d="M14.25 31L4.5 21.25L14.25 11.5L24 21.25L14.25 31ZM23 55V42.5C20.4583 42.2917 17.9375 41.9896 15.4375 41.5938C12.9375 41.1979 10.4583 40.6667 8 40L9.25 35C12.75 35.9583 16.2604 36.6146 19.7813 36.9688C23.3021 37.3229 26.875 37.5 30.5 37.5C34.125 37.5 37.6979 37.3229 41.2188 36.9688C44.7396 36.6146 48.25 35.9583 51.75 35L53 40C50.5417 40.6667 48.0625 41.1979 45.5625 41.5938C43.0625 41.9896 40.5417 42.2917 38 42.5V55H23ZM14.25 24L17 21.25L14.25 18.5L11.5 21.25L14.25 24ZM30.5 17.5C28.4167 17.5 26.6458 16.7708 25.1875 15.3125C23.7292 13.8542 23 12.0833 23 10C23 7.91667 23.7292 6.14583 25.1875 4.6875C26.6458 3.22917 28.4167 2.5 30.5 2.5C32.5833 2.5 34.3542 3.22917 35.8125 4.6875C37.2708 6.14583 38 7.91667 38 10C38 12.0833 37.2708 13.8542 35.8125 15.3125C34.3542 16.7708 32.5833 17.5 30.5 17.5ZM30.5 35C29.125 35 27.9479 34.5104 26.9688 33.5312C25.9896 32.5521 25.5 31.375 25.5 30C25.5 28.625 25.9896 27.4479 26.9688 26.4688C27.9479 25.4896 29.125 25 30.5 25C31.875 25 33.0521 25.4896 34.0313 26.4688C35.0104 27.4479 35.5 28.625 35.5 30C35.5 31.375 35.0104 32.5521 34.0313 33.5312C33.0521 34.5104 31.875 35 30.5 35ZM30.5 12.5C31.2083 12.5 31.8021 12.2604 32.2813 11.7812C32.7604 11.3021 33 10.7083 33 10C33 9.29167 32.7604 8.69792 32.2813 8.21875C31.8021 7.73958 31.2083 7.5 30.5 7.5C29.7917 7.5 29.1979 7.73958 28.7188 8.21875C28.2396 8.69792 28 9.29167 28 10C28 10.7083 28.2396 11.3021 28.7188 11.7812C29.1979 12.2604 29.7917 12.5 30.5 12.5ZM43.125 30L38.875 22.5L43.125 15H51.625L55.875 22.5L51.625 30H43.125ZM46 25H48.75L50.125 22.5L48.75 20H46L44.625 22.5L46 25Z" fill="#B7B7B7"/>
</g>
</svg>
