<svg width="117" height="51" viewBox="0 0 117 51" fill="none" xmlns="http://www.w3.org/2000/svg">
<path d="M22.5335 0.357422H33.0834C38.0251 0.357422 40.8374 3.34847 40.8374 7.36364C40.8374 10.6798 38.903 13.8984 35.3267 15.2964L37.9276 23.8144H30.7426L28.5318 15.9467H26.1097L24.4354 23.8144H17.543L22.5335 0.357422ZM27.1013 11.2325H30.1736C32.482 11.2325 33.9287 9.85076 33.9287 7.93259C33.9287 6.2745 32.8883 5.44546 30.9864 5.44546H28.353L27.1013 11.2325Z" fill="#9374FF"/>
<path d="M56.7514 23.8144H40.2031L45.1936 0.357422H61.7257L60.5553 5.81934H50.9156L50.1191 9.62318H59.1573L58.1006 14.5649H49.0625L48.2497 18.3525H57.9056L56.7514 23.8144Z" fill="#9374FF"/>
<path d="M74.9283 19.149H67.8083L65.5163 23.8144H58.25L71.157 0.357422H79.8051L82.2109 23.8144H75.1397L74.9283 19.149ZM70.1979 14.2886H74.717L74.3594 6.11195H74.2131L70.1979 14.2886Z" fill="#9374FF"/>
<path d="M115.797 23.8144H84.1289L89.1194 0.357422H96.0118L92.2242 18.1899H117L115.797 23.8144Z" fill="#9374FF"/>
<path d="M22.0505 50.3574L25.8706 32.3623H0.578125L1.74854 26.9004H40.452L39.2815 32.3623H32.763L28.9429 50.3574H22.0505Z" fill="#9374FF"/>
<path d="M37.8594 50.3574L42.8499 26.9004H49.7423L44.7518 50.3574H37.8594Z" fill="#9374FF"/>
<path d="M48.2773 50.3574L53.2516 26.9004H61.2331L63.1676 41.6118H63.2976L71.2141 26.9004H79.8134L74.8229 50.3574H68.727L71.8969 35.5972H71.7018L63.5414 50.3574H59.5751L57.6244 35.5972H57.4943L54.357 50.3574H48.2773Z" fill="#9374FF"/>
<path d="M94.8842 50.3574H78.3359L83.3264 26.9004H99.8585L98.6881 32.3623H89.0484L88.2519 36.1662H97.2901L96.2335 41.1079H87.1953L86.3825 44.8955H96.0384L94.8842 50.3574Z" fill="#9374FF"/>
</svg>
