<svg width="24" height="24" viewBox="0 0 24 24" fill="none" xmlns="http://www.w3.org/2000/svg">
<path d="M21.0469 11.05V19C21.0469 19.55 20.8511 20.0208 20.4594 20.4125C20.0678 20.8042 19.5969 21 19.0469 21H5.04694C4.49694 21 4.02611 20.8042 3.63444 20.4125C3.24277 20.0208 3.04694 19.55 3.04694 19V11.05C2.66361 10.7 2.36777 10.25 2.15944 9.7C1.95111 9.15 1.94694 8.55 2.14694 7.9L3.19694 4.5C3.33027 4.06667 3.56777 3.70833 3.90944 3.425C4.25111 3.14167 4.64694 3 5.09694 3H18.9969C19.4469 3 19.8386 3.1375 20.1719 3.4125C20.5053 3.6875 20.7469 4.05 20.8969 4.5L21.9469 7.9C22.1469 8.55 22.1428 9.14167 21.9344 9.675C21.7261 10.2083 21.4303 10.6667 21.0469 11.05ZM14.2469 10C14.6969 10 15.0386 9.84583 15.2719 9.5375C15.5053 9.22917 15.5969 8.88333 15.5469 8.5L14.9969 5H13.0469V8.7C13.0469 9.05 13.1636 9.35417 13.3969 9.6125C13.6303 9.87083 13.9136 10 14.2469 10ZM9.74694 10C10.1303 10 10.4428 9.87083 10.6844 9.6125C10.9261 9.35417 11.0469 9.05 11.0469 8.7V5H9.09694L8.54694 8.5C8.48027 8.9 8.56777 9.25 8.80944 9.55C9.05111 9.85 9.36361 10 9.74694 10ZM5.29694 10C5.59694 10 5.85944 9.89167 6.08444 9.675C6.30944 9.45833 6.44694 9.18333 6.49694 8.85L7.04694 5H5.09694L4.09694 8.35C3.99694 8.68333 4.05111 9.04167 4.25944 9.425C4.46777 9.80833 4.81361 10 5.29694 10ZM18.7969 10C19.2803 10 19.6303 9.80833 19.8469 9.425C20.0636 9.04167 20.1136 8.68333 19.9969 8.35L18.9469 5H17.0469L17.5969 8.85C17.6469 9.18333 17.7844 9.45833 18.0094 9.675C18.2344 9.89167 18.4969 10 18.7969 10ZM5.04694 19H19.0469V11.95C18.9636 11.9833 18.9094 12 18.8844 12H18.7969C18.3469 12 17.9511 11.925 17.6094 11.775C17.2678 11.625 16.9303 11.3833 16.5969 11.05C16.2969 11.35 15.9553 11.5833 15.5719 11.75C15.1886 11.9167 14.7803 12 14.3469 12C13.8969 12 13.4761 11.9167 13.0844 11.75C12.6928 11.5833 12.3469 11.35 12.0469 11.05C11.7636 11.35 11.4344 11.5833 11.0594 11.75C10.6844 11.9167 10.2803 12 9.84694 12C9.36361 12 8.92611 11.9167 8.53444 11.75C8.14277 11.5833 7.79694 11.35 7.49694 11.05C7.14694 11.4 6.80111 11.6458 6.45944 11.7875C6.11777 11.9292 5.73027 12 5.29694 12H5.18444C5.14277 12 5.09694 11.9833 5.04694 11.95V19Z" fill="black"/>
</svg>
