<svg width="16" height="16" viewBox="0 0 16 16" fill="none" xmlns="http://www.w3.org/2000/svg">
<g clip-path="url(#clip0_953_6970)">
<path d="M10.1487 12.9879L3.08269 8.27722C3.03703 8.24677 2.9996 8.20553 2.97371 8.15715C2.94782 8.10877 2.93428 8.05475 2.93428 7.99988C2.93428 7.94501 2.94782 7.89099 2.97371 7.84261C2.9996 7.79423 3.03703 7.75299 3.08269 7.72255L10.1487 3.01188C10.1989 2.97848 10.2572 2.95932 10.3174 2.95644C10.3777 2.95355 10.4375 2.96706 10.4907 2.99552C10.5438 3.02398 10.5883 3.06633 10.6193 3.11804C10.6503 3.16976 10.6667 3.22892 10.6667 3.28922V12.7105C10.6667 12.7708 10.6503 12.83 10.6193 12.8817C10.5883 12.9334 10.5438 12.9758 10.4907 13.0042C10.4375 13.0327 10.3777 13.0462 10.3174 13.0433C10.2572 13.0404 10.1989 13.0213 10.1487 12.9879Z" fill="#9374FF"/>
</g>
<defs>
<clipPath id="clip0_953_6970">
<rect width="16" height="16" fill="white" transform="matrix(-1 0 0 1 16 0)"/>
</clipPath>
</defs>
</svg>
