<svg width="20" height="21" viewBox="0 0 20 21" fill="none" xmlns="http://www.w3.org/2000/svg">
<path d="M10.0001 18.8334C5.39758 18.8334 1.66675 15.1026 1.66675 10.5001C1.66675 5.89758 5.39758 2.16675 10.0001 2.16675C14.6026 2.16675 18.3334 5.89758 18.3334 10.5001C18.3334 15.1026 14.6026 18.8334 10.0001 18.8334ZM10.0001 17.1667C11.7682 17.1667 13.4639 16.4644 14.7141 15.2141C15.9644 13.9639 16.6667 12.2682 16.6667 10.5001C16.6667 8.73197 15.9644 7.03628 14.7141 5.78604C13.4639 4.53579 11.7682 3.83341 10.0001 3.83341C8.23197 3.83341 6.53628 4.53579 5.28604 5.78604C4.03579 7.03628 3.33341 8.73197 3.33341 10.5001C3.33341 12.2682 4.03579 13.9639 5.28604 15.2141C6.53628 16.4644 8.23197 17.1667 10.0001 17.1667V17.1667ZM9.16925 13.8334L5.63342 10.2976L6.81175 9.11925L9.16925 11.4767L13.8826 6.76258L15.0617 7.94091L9.16925 13.8334Z" fill="#D7D7DC"/>
</svg>
