<svg width="25" height="24" viewBox="0 0 25 24" fill="none" xmlns="http://www.w3.org/2000/svg">
    <path d="M8.90002 16H20.9V4H18.9V11L16.4 9.5L13.9 11V4H8.90002V16ZM8.90002 18C8.35002 18 7.87919 17.8042 7.48752 17.4125C7.09586 17.0208 6.90002 16.55 6.90002 16V4C6.90002 3.45 7.09586 2.97917 7.48752 2.5875C7.87919 2.19583 8.35002 2 8.90002 2H20.9C21.45 2 21.9209 2.19583 22.3125 2.5875C22.7042 2.97917 22.9 3.45 22.9 4V16C22.9 16.55 22.7042 17.0208 22.3125 17.4125C21.9209 17.8042 21.45 18 20.9 18H8.90002ZM4.90002 22C4.35002 22 3.87919 21.8042 3.48752 21.4125C3.09586 21.0208 2.90002 20.55 2.90002 20V6H4.90002V20H18.9V22H4.90002Z"
          fill="white"/>
</svg>
