<svg width="25" height="24" viewBox="0 0 25 24" fill="none" xmlns="http://www.w3.org/2000/svg">
<path d="M4.1665 22C4.1665 19.8783 5.00936 17.8434 6.50965 16.3431C8.00994 14.8429 10.0448 14 12.1665 14C14.2882 14 16.3231 14.8429 17.8234 16.3431C19.3236 17.8434 20.1665 19.8783 20.1665 22H18.1665C18.1665 20.4087 17.5344 18.8826 16.4091 17.7574C15.2839 16.6321 13.7578 16 12.1665 16C10.5752 16 9.04908 16.6321 7.92386 17.7574C6.79865 18.8826 6.1665 20.4087 6.1665 22H4.1665ZM12.1665 13C8.8515 13 6.1665 10.315 6.1665 7C6.1665 3.685 8.8515 1 12.1665 1C15.4815 1 18.1665 3.685 18.1665 7C18.1665 10.315 15.4815 13 12.1665 13ZM12.1665 11C14.3765 11 16.1665 9.21 16.1665 7C16.1665 4.79 14.3765 3 12.1665 3C9.9565 3 8.1665 4.79 8.1665 7C8.1665 9.21 9.9565 11 12.1665 11Z" fill="#C0C0C7"/>
</svg>
