<?xml version="1.0" encoding="UTF-8"?>
<svg id="_레이어_2" data-name="레이어 2" xmlns="http://www.w3.org/2000/svg" viewBox="0 0 180.591796875 121.83984375">
  <g id="_레이어_4" data-name="레이어 4">
    <g>
      <path d="M36.56640625,55.861328125h12.140625c9.828125,0,15.609375-3.46875,15.609375-9.466796875,0-5.63671875-4.986328125-9.39453125-12.71875-9.39453125-7.298828125,0-12.646484375,3.61328125-14.59765625,9.5390625H9.466796875C13.5859375,26.44921875,30.640625,13.947265625,54.126953125,13.947265625c22.908203125,0,39.095703125,12.068359375,39.095703125,29.123046875,0,12.357421875-10.26171875,22.185546875-24.859375,24.064453125l-.072265625.578125c11.2734375,2.74609375,17.994140625,10.6953125,17.994140625,21.390625,0,19.005859375-18.427734375,32.736328125-43.720703125,32.736328125-26.015625,0-42.564453125-12.4296875-42.564453125-31.5078125,0-1.517578125.216796875-3.107421875.578125-5.05859375h28.0390625c-1.228515625,6.6484375,3.541015625,13.296875,13.73046875,13.296875,8.455078125,0,14.453125-4.9140625,14.453125-11.70703125,0-6.576171875-5.05859375-10.6953125-13.296875-10.6953125h-11.2734375l4.3359375-20.306640625Z"/>
      <path d="M113.74609375,15.537109375h4.263671875l-1.373046875,6.720703125h.14453125c2.818359375-4.76953125,6.9375-7.298828125,12.140625-7.298828125,2.095703125,0,4.3359375.505859375,5.4921875,1.083984375l-1.083984375,4.408203125c-1.083984375-.72265625-3.251953125-1.228515625-5.4921875-1.228515625-6.6484375,0-11.490234375,4.986328125-13.224609375,13.080078125l-5.130859375,24.208984375h-4.48046875l8.744140625-40.974609375Z"/>
      <path d="M133.69140625,40.396484375c-.14453125-14.1640625,9.68359375-25.509765625,21.751953125-25.509765625,7.732421875,0,13.802734375,4.697265625,14.814453125,11.41796875h.14453125l5.63671875-26.3046875h4.552734375l-12.068359375,56.51171875h-4.48046875l1.806640625-8.52734375h-.216796875c-3.1796875,5.564453125-9.466796875,9.177734375-16.115234375,9.177734375-9.39453125,0-15.75390625-6.79296875-15.826171875-16.765625ZM168.5234375,32.0859375c-.14453125-7.94921875-5.203125-13.15234375-12.935546875-13.15234375-9.5390625,0-17.560546875,9.5390625-17.416015625,21.029296875.14453125,8.021484375,5.05859375,13.224609375,12.57421875,13.224609375,10.478515625,0,17.921875-9.755859375,17.77734375-21.1015625Z"/>
    </g>
  </g>
</svg>