<svg width="17" height="16" viewBox="0 0 17 16" fill="none" xmlns="http://www.w3.org/2000/svg">
<rect x="1.8501" y="2.3999" width="12.8" height="12" fill="white"/>
<path fill-rule="evenodd" clip-rule="evenodd" d="M1.4212 1.1712C0.25 2.344 0.25 4.2288 0.25 8C0.25 11.7712 0.25 13.6568 1.4212 14.828C2.594 16 4.4788 16 8.25 16C12.0212 16 13.9068 16 15.078 14.828C16.25 13.6576 16.25 11.7712 16.25 8C16.25 4.2288 16.25 2.3432 15.078 1.1712C13.9076 0 12.0212 0 8.25 0C4.4788 0 2.5932 0 1.4212 1.1712ZM11.45 6.4C11.8743 6.4 12.2813 6.23143 12.5814 5.93137C12.8814 5.63131 13.05 5.22435 13.05 4.8C13.05 4.37565 12.8814 3.96869 12.5814 3.66863C12.2813 3.36857 11.8743 3.2 11.45 3.2C11.0257 3.2 10.6187 3.36857 10.3186 3.66863C10.0186 3.96869 9.85 4.37565 9.85 4.8C9.85 5.22435 10.0186 5.63131 10.3186 5.93137C10.6187 6.23143 11.0257 6.4 11.45 6.4ZM3.706 8.8832C3.9459 8.66021 4.26429 8.54119 4.59164 8.55213C4.91899 8.56307 5.22872 8.70308 5.4532 8.9416L7.5716 11.1896C7.88042 11.5176 8.29908 11.7205 8.74785 11.7597C9.19662 11.799 9.64415 11.6718 10.0052 11.4024C10.2429 11.2256 10.5355 11.1385 10.8312 11.1565C11.1269 11.1745 11.4067 11.2964 11.6212 11.5008L13.4356 13.2336C13.5515 13.3385 13.7037 13.394 13.86 13.3884C14.0162 13.3827 14.164 13.3163 14.272 13.2033C14.38 13.0903 14.4397 12.9396 14.4382 12.7833C14.4368 12.627 14.3744 12.4774 14.2644 12.3664L12.45 10.632C12.0304 10.2318 11.4827 9.99304 10.9039 9.9579C10.3251 9.92276 9.75256 10.0935 9.2876 10.44C9.16241 10.5332 9.00731 10.5772 8.85182 10.5634C8.69634 10.5497 8.55133 10.4793 8.4444 10.3656L6.3268 8.1176C5.88506 7.64871 5.27582 7.37353 4.63198 7.3521C3.98813 7.33067 3.36194 7.56472 2.89 8.0032L2.242 8.6048C2.1253 8.71301 2.05637 8.86314 2.05037 9.02217C2.04437 9.1812 2.10179 9.3361 2.21 9.4528C2.31821 9.5695 2.46834 9.63843 2.62737 9.64443C2.7864 9.65043 2.9413 9.59301 3.058 9.4848L3.706 8.8832Z" fill="black"/>
</svg>
