<svg width="24" height="24" viewBox="0 0 24 24" fill="none" xmlns="http://www.w3.org/2000/svg">
<path d="M5 21.476C4.45 21.476 3.97917 21.2802 3.5875 20.8885C3.19583 20.4969 3 20.026 3 19.476V14.926L5.75 11.801L7.175 13.226L5.175 15.476H18.825L16.875 13.276L18.3 11.851L21 14.926V19.476C21 20.026 20.8042 20.4969 20.4125 20.8885C20.0208 21.2802 19.55 21.476 19 21.476H5ZM5 19.476H19V17.476H5V19.476ZM10.625 13.851L7.1 10.326C6.71667 9.94271 6.52917 9.47187 6.5375 8.91354C6.54583 8.35521 6.74167 7.88438 7.125 7.50104L12.025 2.60104C12.4083 2.21771 12.8833 2.01771 13.45 2.00104C14.0167 1.98438 14.4917 2.16771 14.875 2.55104L18.4 6.07604C18.7833 6.45937 18.9833 6.92604 19 7.47604C19.0167 8.02604 18.8333 8.49271 18.45 8.87604L13.45 13.876C13.0667 14.2594 12.5958 14.4469 12.0375 14.4385C11.4792 14.4302 11.0083 14.2344 10.625 13.851ZM17 7.50104L13.475 3.97604L8.525 8.92604L12.05 12.451L17 7.50104Z" fill="black"/>
</svg>
