<svg width="24" height="24" viewBox="0 0 24 24" fill="none" xmlns="http://www.w3.org/2000/svg">
<path d="M10.7998 12.1999V14.1999C9.2085 14.1999 7.68237 14.832 6.55716 15.9572C5.43194 17.0825 4.3999 20.6087 4.3999 22.2H2.3999C2.39993 20.1216 3.28698 16.4566 5.05527 14.6322C6.5018 13.1397 8.47238 12.2688 10.5498 12.2039L10.7998 12.1999ZM10.7998 2.19989C14.1148 2.19989 16.7998 4.88489 16.7998 8.19989C16.8004 9.75242 16.1989 11.2447 15.1219 12.3629C14.0449 13.4811 12.5763 14.1382 11.0248 14.1959L10.7998 14.1999C7.4848 14.1999 4.7998 11.5149 4.7998 8.19989C4.79924 6.64736 5.4007 5.1551 6.4777 4.03688C7.5547 2.91866 9.02334 2.26161 10.5748 2.20389L10.7998 2.19989ZM10.7998 4.19989C8.5898 4.19989 6.7998 5.98989 6.7998 8.19989C6.7998 10.4099 8.5898 12.1999 10.7998 12.1999C13.0098 12.1999 14.7998 10.4099 14.7998 8.19989C14.7998 5.98989 13.0098 4.19989 10.7998 4.19989Z" fill="black"/>
<path d="M11.3333 21.5532H12.276L18.4853 14.8155L17.5427 13.7926L11.3333 20.5303V21.5532ZM22 23H10V19.9306L18.9567 10.2118C19.0817 10.0762 19.2512 10 19.428 10C19.6048 10 19.7743 10.0762 19.8993 10.2118L21.7853 12.2583C21.9103 12.3939 21.9805 12.5779 21.9805 12.7697C21.9805 12.9615 21.9103 13.1455 21.7853 13.2812L14.162 21.5532H22V23ZM18.4853 12.7697L19.428 13.7926L20.3707 12.7697L19.428 11.7468L18.4853 12.7697Z" fill="black" stroke="black" stroke-width="0.4"/>
</svg>
